{"glyphs":{"0":{"ha":672,"x_min":9,"x_max":664,"o":"m 347 992 q 369 999 347 992 q 445 1006 392 1006 q 537 992 498 1006 q 602 955 577 979 q 664 764 664 897 q 653 629 664 696 q 629 496 643 562 q 602 379 616 431 q 568 272 587 326 q 526 177 548 218 q 473 99 503 136 q 407 38 443 62 q 326 0 372 14 q 228 -14 281 -14 q 135 0 175 -14 q 71 38 96 14 q 9 229 9 96 q 19 364 9 296 q 43 496 30 431 q 71 614 57 562 q 105 721 85 667 q 147 816 125 774 q 200 894 170 857 q 266 955 230 931 q 347 992 301 979 m 406 825 q 280 496 349 825 q 241 237 241 305 q 267 168 241 168 q 393 496 323 168 q 432 756 432 688 q 406 825 432 825 z "},"1":{"ha":672,"x_min":83,"x_max":611,"o":"m 401 0 l 167 0 l 290 579 l 328 722 l 182 598 l 83 740 l 407 991 l 611 991 l 401 0 z "},"2":{"ha":672,"x_min":-53,"x_max":665,"o":"m 439 1005 q 628 932 574 1005 q 665 810 665 883 q 656 732 665 774 q 593 573 639 649 q 483 425 547 497 q 255 189 419 353 l 562 189 l 521 0 l -53 0 l -21 149 l 208 399 q 281 479 255 449 q 340 553 307 509 q 420 724 403 638 q 425 764 425 746 q 419 795 425 782 q 380 820 408 820 q 309 792 348 820 q 278 768 289 777 q 245 739 268 760 q 220 716 222 717 l 119 854 q 279 968 205 930 q 439 1005 354 1005 z "},"3":{"ha":672,"x_min":-52,"x_max":671,"o":"m 429 1005 q 568 978 509 1005 q 654 895 626 951 q 671 825 671 860 q 665 760 671 790 q 594 615 647 676 q 460 523 541 555 q 571 441 539 500 q 591 355 591 405 q 584 292 591 326 q 443 68 553 149 q 181 -13 332 -13 q -52 35 30 -13 l -10 231 q 132 172 52 190 q 196 165 165 165 q 297 197 259 165 q 350 298 336 229 q 354 335 354 318 q 229 427 354 427 l 182 427 l 217 590 l 261 590 q 367 624 326 590 q 422 722 408 657 q 427 764 427 744 q 420 798 427 783 q 371 823 406 823 q 231 783 307 823 q 193 760 212 773 l 130 895 q 182 931 148 910 q 249 967 216 952 q 332 993 282 981 q 429 1005 381 1005 z "},"4":{"ha":672,"x_min":-45,"x_max":663,"o":"m 532 379 l 630 379 l 593 202 l 495 202 l 452 0 l 226 0 l 269 202 l -45 202 l -12 363 l 420 991 l 663 991 l 532 379 m 182 379 l 306 379 l 347 568 l 367 644 l 182 379 z "},"5":{"ha":672,"x_min":-41,"x_max":673,"o":"m 328 629 q 393 631 352 631 q 475 616 435 631 q 541 573 516 600 q 580 508 566 545 q 594 426 594 470 q 585 334 594 382 q 443 80 551 172 q 180 -13 335 -13 q -41 45 41 -13 l 0 238 q 134 176 54 195 q 199 169 168 169 q 344 319 311 169 q 350 373 350 349 q 264 458 350 458 q 136 433 219 458 l 69 491 l 205 991 l 673 991 l 633 802 l 375 802 l 328 629 z "},"6":{"ha":672,"x_min":7,"x_max":681,"o":"m 529 826 q 333 704 406 826 q 291 608 312 667 q 428 650 351 650 q 583 568 539 650 q 608 459 608 520 q 594 332 608 397 q 400 34 549 125 q 228 -13 323 -13 q 34 98 85 -13 q 7 238 7 155 q 28 423 7 321 q 77 606 50 525 q 147 763 104 686 q 244 891 190 840 q 377 973 298 942 q 551 1004 455 1004 q 681 986 621 1004 l 643 808 q 529 826 572 826 m 370 412 q 334 477 370 477 q 245 331 276 477 q 232 231 232 269 q 267 167 232 167 q 360 331 326 167 q 370 412 370 378 z "},"7":{"ha":672,"x_min":5,"x_max":728,"o":"m 699 854 l 248 0 l 5 0 l 445 802 l 115 802 l 155 990 l 728 990 l 699 854 z "},"8":{"ha":672,"x_min":-16,"x_max":672,"o":"m 444 1004 q 627 932 564 1004 q 672 806 672 880 q 665 745 672 777 q 610 627 652 679 q 485 524 568 576 q 586 318 586 433 q 580 259 586 290 q 454 59 553 132 q 225 -13 355 -13 q 30 60 96 -13 q -16 189 -16 111 q -8 259 -16 222 q 188 517 24 414 q 117 623 136 570 q 106 684 106 652 q 180 883 106 797 q 302 973 233 943 q 444 1004 372 1004 m 408 836 q 341 745 361 836 q 337 709 337 726 q 366 628 337 662 q 436 745 421 673 q 441 790 441 772 q 408 836 441 836 m 214 213 q 262 156 214 156 q 351 259 329 156 q 357 308 357 286 q 351 345 357 329 q 309 413 340 377 q 220 259 241 360 q 214 213 214 233 z "},"9":{"ha":672,"x_min":-8,"x_max":666,"o":"m 144 165 q 340 287 267 165 q 382 382 361 323 q 245 340 321 340 q 90 423 134 340 q 65 532 65 471 q 79 659 65 593 q 273 956 123 866 q 445 1004 350 1004 q 639 894 588 1004 q 666 752 666 836 q 644 568 666 669 q 596 385 623 466 q 526 228 569 304 q 429 100 483 151 q 296 18 374 49 q 121 -13 218 -13 q -8 5 52 -13 l 30 183 q 144 165 100 165 m 302 579 q 338 513 302 513 q 428 660 397 513 q 441 760 441 722 q 406 824 441 824 q 313 660 347 824 q 302 579 302 612 z "},"\r":{"ha":361,"x_min":0,"x_max":0,"o":""}," ":{"ha":331,"x_min":0,"x_max":0,"o":""},"!":{"ha":372,"x_min":-36,"x_max":430,"o":"m 250 310 l 50 310 l 161 991 l 430 991 l 250 310 m 22 195 q 43 211 22 195 q 132 227 64 227 q 228 195 199 227 q 248 139 248 174 q 243 104 248 123 q 188 15 231 47 q 79 -18 145 -18 q -16 14 12 -18 q -36 72 -36 37 q -33 104 -36 87 q 22 195 -20 163 z "},"\"":{"ha":654,"x_min":64,"x_max":618,"o":"m 239 615 l 64 615 l 115 991 l 349 991 l 239 615 m 509 615 l 334 615 l 385 991 l 618 991 l 509 615 z "},"#":{"ha":775,"x_min":-30,"x_max":804,"o":"m 498 720 q 596 991 562 895 l 778 991 l 682 720 l 804 720 l 771 564 l 625 564 l 576 427 l 707 427 l 674 270 l 522 270 l 425 0 l 240 0 l 337 270 l 277 270 q 180 0 229 138 l -4 0 l 92 270 l -30 270 l 3 427 l 149 427 l 198 564 l 68 564 l 101 720 l 254 720 l 351 991 l 532 991 l 436 720 l 498 720 m 380 564 l 332 427 l 393 427 l 442 564 l 380 564 z "},"$":{"ha":671,"x_min":-31,"x_max":692,"o":"m 404 777 q 294 703 311 777 q 294 687 294 698 q 305 657 294 677 q 345 622 316 637 l 504 535 q 600 369 600 483 q 593 315 600 342 q 499 144 571 208 q 312 63 427 79 l 282 -79 l 153 -79 l 181 58 q -31 121 62 66 l 12 321 q 279 215 170 215 q 363 251 336 215 q 391 311 384 279 q 393 327 393 319 q 365 372 393 356 l 254 437 q 146 511 179 478 q 103 567 113 545 q 90 610 94 590 q 93 703 82 650 q 186 864 114 802 q 370 944 258 926 l 393 1054 l 522 1054 l 500 947 q 692 882 600 935 l 593 714 q 566 728 587 717 q 538 744 545 740 q 511 756 530 747 q 478 768 492 764 q 404 777 437 777 z "},"%":{"ha":1071,"x_min":42,"x_max":1025,"o":"m 57 692 q 163 926 90 846 q 343 1006 237 1006 q 490 926 450 1006 q 511 822 511 882 q 496 692 511 762 q 390 457 463 538 q 209 377 316 377 q 63 457 102 377 q 42 561 42 501 q 57 692 42 621 m 300 0 l 146 0 l 765 991 l 921 991 l 300 0 m 241 526 q 261 536 252 526 q 311 692 283 562 q 329 841 336 813 q 322 854 326 851 q 310 857 318 857 q 292 847 301 857 q 242 692 270 821 q 222 562 222 597 q 241 526 222 526 m 570 302 q 677 537 604 456 q 857 617 750 617 q 1004 537 964 617 q 1025 433 1025 493 q 1010 302 1025 372 q 903 68 977 149 q 723 -12 829 -12 q 576 68 616 -12 q 555 172 555 112 q 570 302 555 232 m 825 468 q 806 458 814 468 q 755 302 783 432 q 736 172 736 208 q 755 137 736 137 q 774 147 766 137 q 825 302 797 173 q 844 433 844 397 q 825 468 844 468 z "},"&":{"ha":829,"x_min":-14,"x_max":823,"o":"m 693 833 q 477 517 693 663 q 508 454 488 494 q 544 380 527 413 q 614 534 562 413 l 823 534 q 640 192 755 340 q 738 0 690 92 l 481 0 l 457 50 q 224 -13 357 -13 q 28 63 91 -13 q -14 194 -14 115 q -5 272 -14 231 q 212 548 28 432 q 171 671 173 645 q 169 697 170 681 q 176 766 167 723 q 287 940 199 875 q 486 1005 374 1005 q 654 943 598 1005 q 693 833 693 899 m 467 795 q 448 827 467 827 q 416 809 431 827 q 397 767 402 791 q 392 718 392 742 q 406 663 392 694 q 467 795 467 719 m 233 288 q 227 242 227 264 q 236 203 227 220 q 290 172 250 172 q 380 207 330 172 q 335 300 363 240 q 288 397 306 361 q 233 288 245 352 z "},"'":{"ha":384,"x_min":64,"x_max":349,"o":"m 239 615 l 64 615 l 115 991 l 349 991 l 239 615 z "},"(":{"ha":496,"x_min":19,"x_max":594,"o":"m 125 -214 q 19 174 19 -50 q 42 384 19 275 q 167 715 80 559 q 381 991 254 871 l 594 991 q 385 702 469 858 q 243 172 243 437 q 336 -214 243 -35 l 125 -214 z "},")":{"ha":496,"x_min":-96,"x_max":476,"o":"m 372 991 q 476 593 476 820 q 452 384 476 488 q 329 57 416 210 q 115 -214 243 -96 l -96 -214 q 229 385 161 62 q 252 595 252 490 q 159 991 252 812 l 372 991 z "},"*":{"ha":665,"x_min":29,"x_max":640,"o":"m 418 848 l 640 907 l 625 734 l 437 722 l 524 557 l 353 476 l 305 643 l 197 477 l 54 557 l 210 722 l 29 736 l 92 907 l 284 848 l 305 1055 l 484 1055 l 418 848 z "},"+":{"ha":608,"x_min":21,"x_max":578,"o":"m 400 573 l 578 573 l 543 408 l 365 408 l 327 229 l 161 229 l 199 408 l 21 408 l 56 573 l 235 573 l 273 751 l 438 751 l 400 573 z "},",":{"ha":419,"x_min":-107,"x_max":275,"o":"m 262 186 l 275 156 q 82 -174 212 22 l -107 -174 q 42 186 -14 31 l 262 186 z "},"-":{"ha":434,"x_min":3,"x_max":431,"o":"m 392 284 l 3 284 l 42 467 l 431 467 l 392 284 z "},".":{"ha":353,"x_min":-33,"x_max":227,"o":"m -28 104 q 20 196 -16 165 q 122 227 56 227 q 212 197 189 227 q 227 151 227 176 q 222 104 227 126 q 71 -18 196 -18 q -18 14 5 -18 q -33 58 -33 34 q -28 104 -33 83 z "},"/":{"ha":592,"x_min":-105,"x_max":701,"o":"m 121 0 l -105 0 l 475 991 l 701 991 l 121 0 z "},":":{"ha":353,"x_min":-27,"x_max":349,"o":"m 94 654 q 143 746 107 715 q 246 777 180 777 q 335 746 312 777 q 349 702 349 726 q 345 654 349 677 q 193 532 319 532 q 104 564 127 532 q 90 608 90 584 q 94 654 90 633 m -22 104 q 26 196 -9 165 q 129 227 62 227 q 218 197 195 227 q 233 151 233 176 q 228 104 233 126 q 76 -18 201 -18 q -12 14 11 -18 q -27 58 -27 34 q -22 104 -27 83 z "},";":{"ha":419,"x_min":-98,"x_max":397,"o":"m 142 654 q 191 746 155 715 q 293 777 227 777 q 382 746 359 777 q 397 701 397 726 q 393 654 397 676 q 241 532 366 532 q 153 564 176 532 q 138 608 138 584 q 142 654 138 633 m 272 186 l 283 156 q 91 -174 220 22 l -98 -174 q 52 186 -7 27 l 272 186 z "},"<":{"ha":609,"x_min":27,"x_max":641,"o":"m 600 675 l 247 490 q 522 304 511 311 l 481 113 l 27 435 l 51 546 l 641 867 l 600 675 z "},"=":{"ha":609,"x_min":-6,"x_max":606,"o":"m 571 536 l 49 536 l 83 701 l 606 701 l 571 536 m 516 278 l -6 278 l 28 443 l 551 443 l 516 278 z "},">":{"ha":609,"x_min":-41,"x_max":573,"o":"m 354 490 q 78 675 295 530 l 119 867 l 573 546 l 549 435 l -41 113 l -1 304 l 354 490 z "},"?":{"ha":534,"x_min":18,"x_max":580,"o":"m 361 1005 q 538 940 479 1005 q 580 823 580 894 q 570 750 580 795 q 536 659 561 705 q 480 579 511 612 q 397 500 450 546 q 337 435 356 463 q 309 365 317 407 l 296 310 l 83 310 l 96 371 q 146 490 113 440 q 241 592 180 539 l 241 592 q 353 757 337 677 q 356 781 356 770 q 302 825 356 825 q 127 757 248 825 l 85 923 q 361 1005 224 1005 m 71 196 q 89 212 71 196 q 173 227 107 227 q 262 196 239 227 q 276 151 276 176 q 271 104 276 126 q 121 -18 245 -18 q 18 66 18 -18 q 22 104 18 83 q 71 196 35 165 z "},"@":{"ha":1036,"x_min":23,"x_max":1017,"o":"m 387 -111 q 87 27 181 -111 q 23 254 23 120 q 40 406 23 324 q 123 628 64 521 q 262 818 181 735 q 449 951 342 901 q 668 1002 555 1002 q 967 861 880 1002 q 1017 659 1017 783 q 1003 522 1017 589 q 972 409 989 456 q 929 313 956 361 q 869 231 903 265 q 790 174 836 196 q 695 152 743 152 q 616 168 648 152 q 570 212 585 184 q 422 152 505 152 q 288 217 326 152 q 265 307 265 255 q 278 419 265 358 q 320 539 291 479 q 390 646 349 598 q 490 722 432 694 q 621 749 549 749 q 792 715 692 749 l 705 376 q 698 318 698 342 q 713 294 698 294 q 745 318 729 294 q 774 381 762 342 q 825 642 825 537 q 799 766 825 718 q 633 854 753 854 q 510 826 569 854 q 407 751 450 797 q 327 646 363 705 q 269 528 291 587 q 220 286 220 398 q 328 58 220 113 q 429 37 370 37 q 714 115 534 37 l 681 -43 q 397 -111 541 -111 q 387 -111 392 -111 m 456 340 q 475 294 456 294 q 551 464 504 294 q 569 530 556 482 q 589 606 583 578 q 578 607 587 607 q 528 568 553 607 q 465 412 484 502 q 456 340 456 370 z "},"A":{"ha":773,"x_min":-113,"x_max":674,"o":"m 674 0 l 435 0 l 432 243 l 232 243 l 125 0 l -113 0 l 345 996 l 639 996 l 674 0 m 431 431 l 428 692 q 315 431 384 589 l 431 431 z "},"B":{"ha":768,"x_min":-5,"x_max":750,"o":"m 479 991 q 707 930 645 991 q 750 812 750 888 q 741 733 750 776 q 669 585 723 648 q 575 522 632 541 q 663 438 642 494 q 675 371 675 408 q 667 294 675 334 q 542 79 637 157 q 313 0 446 1 l -5 0 l 205 991 l 479 991 m 403 604 q 465 630 443 604 q 499 710 488 656 q 504 752 504 732 q 439 808 504 808 l 393 808 l 349 604 l 403 604 m 322 186 q 430 311 403 186 q 435 357 435 337 q 370 426 435 426 l 311 426 l 260 186 l 322 186 z "},"C":{"ha":703,"x_min":41,"x_max":760,"o":"m 321 -13 q 84 104 153 -13 q 41 303 41 180 q 61 482 41 389 q 107 647 81 575 q 176 786 134 719 q 269 900 217 852 q 390 977 320 948 q 531 1005 460 1005 q 652 987 601 1005 q 760 928 704 970 l 656 761 q 631 780 648 768 q 598 799 614 791 q 516 820 556 820 q 445 797 475 820 q 393 739 414 773 q 353 658 372 705 q 303 488 323 585 q 282 321 282 391 q 382 173 282 173 q 586 245 446 173 l 544 45 q 321 -13 443 -13 z "},"D":{"ha":834,"x_min":-5,"x_max":792,"o":"m 492 991 q 632 966 572 991 q 726 897 692 941 q 792 671 792 813 q 773 506 792 595 q 725 343 754 417 q 652 204 696 269 q 552 96 608 140 q 421 25 496 51 q 260 0 347 0 l -5 0 l 205 991 l 492 991 m 300 186 q 440 264 383 186 q 530 500 496 342 q 550 660 550 594 q 447 808 550 808 l 404 808 l 272 186 l 300 186 z "},"E":{"ha":652,"x_min":-5,"x_max":697,"o":"m 659 808 l 404 808 l 361 608 l 597 608 l 558 423 l 322 423 l 272 186 l 526 186 l 487 0 l -5 0 l 205 991 l 697 991 l 659 808 z "},"F":{"ha":638,"x_min":-5,"x_max":694,"o":"m 656 808 l 403 808 l 352 570 l 588 570 l 549 386 l 313 386 l 231 0 l -5 0 l 205 991 l 694 991 l 656 808 z "},"G":{"ha":825,"x_min":41,"x_max":830,"o":"m 283 324 q 376 173 283 173 q 436 179 404 173 l 477 376 l 359 376 l 399 563 l 751 563 l 642 49 q 333 -13 484 -13 q 190 15 250 -13 q 98 88 130 42 q 41 307 41 169 q 62 486 41 388 q 113 659 82 583 q 191 798 144 734 q 297 908 238 862 q 432 979 355 954 q 595 1005 508 1005 q 830 935 719 1005 l 722 755 q 566 819 625 819 q 484 798 522 819 q 417 745 445 778 q 366 669 389 713 q 303 492 324 591 q 283 324 283 393 z "},"H":{"ha":853,"x_min":-5,"x_max":858,"o":"m 648 0 l 411 0 l 500 422 l 321 422 l 232 0 l -5 0 l 205 991 l 442 991 l 361 609 l 540 609 l 621 991 l 858 991 l 648 0 z "},"I":{"ha":427,"x_min":-5,"x_max":432,"o":"m 222 0 l -5 0 l 205 991 l 432 991 l 222 0 z "},"J":{"ha":408,"x_min":-246,"x_max":441,"o":"m -109 -278 q -113 -278 -111 -278 q -246 -253 -190 -278 l -206 -66 q -102 -90 -131 -90 q 1 35 -26 -90 l 204 991 l 441 991 l 240 44 q 113 -190 211 -102 q -109 -278 15 -278 z "},"K":{"ha":752,"x_min":-5,"x_max":869,"o":"m 547 560 l 659 0 l 410 0 l 344 382 l 307 352 l 233 0 l -5 0 l 205 991 l 443 991 l 367 632 l 377 650 l 618 991 l 869 991 l 547 560 z "},"L":{"ha":631,"x_min":-5,"x_max":520,"o":"m 272 186 l 520 186 l 481 0 l -5 0 l 205 991 l 443 991 l 272 186 z "},"M":{"ha":1146,"x_min":-5,"x_max":1151,"o":"m 538 342 q 817 991 656 615 l 1151 991 l 941 0 l 713 0 l 830 555 l 589 0 l 342 0 l 336 551 l 219 0 l -5 0 l 205 991 l 538 991 l 538 342 z "},"N":{"ha":932,"x_min":-5,"x_max":937,"o":"m 727 0 l 457 0 l 337 557 l 219 0 l -5 0 l 205 991 l 477 991 l 597 435 l 715 991 l 937 991 l 727 0 z "},"O":{"ha":878,"x_min":41,"x_max":836,"o":"m 394 979 q 430 993 394 979 q 549 1006 465 1006 q 691 979 632 1006 q 782 905 750 951 q 836 690 836 825 q 816 510 836 608 q 769 341 795 413 q 701 202 742 269 q 608 89 659 136 q 485 15 556 43 q 330 -13 414 -13 q 187 15 247 -13 q 96 90 127 43 q 41 307 41 169 q 62 487 41 391 q 109 655 82 583 q 177 793 136 727 q 271 905 218 859 q 394 979 323 951 m 282 320 q 370 174 282 174 q 572 497 503 174 q 595 680 595 608 q 509 820 595 820 q 390 738 441 820 q 304 497 338 656 q 282 320 282 392 z "},"P":{"ha":727,"x_min":-5,"x_max":734,"o":"m 479 991 q 734 781 734 991 q 722 681 734 735 q 585 435 688 520 q 322 349 482 349 l 307 349 l 233 0 l -5 0 l 205 991 l 479 991 m 489 730 q 418 808 489 808 l 404 808 l 346 533 l 351 533 q 434 567 402 533 q 482 673 467 600 q 489 730 489 706 z "},"Q":{"ha":865,"x_min":64,"x_max":859,"o":"m 64 308 q 87 498 64 393 q 261 873 139 740 q 571 1006 384 1006 q 823 872 758 1006 q 859 687 859 796 q 837 497 859 602 q 570 47 768 173 q 696 -229 682 -195 l 430 -229 l 343 -13 q 102 121 165 -9 q 64 308 64 197 m 305 320 q 393 174 305 174 q 595 497 526 174 q 618 680 618 608 q 532 820 618 820 q 413 738 465 820 q 328 497 361 656 q 305 320 305 392 z "},"R":{"ha":728,"x_min":-5,"x_max":735,"o":"m 469 991 q 694 918 632 991 q 735 787 735 869 q 724 691 735 743 q 549 434 687 515 l 646 0 l 396 0 l 323 374 l 311 374 l 232 0 l -5 0 l 205 991 l 469 991 m 368 557 q 443 589 414 557 q 485 686 471 621 q 491 740 491 716 q 420 808 491 808 l 404 808 l 350 557 l 368 557 z "},"S":{"ha":630,"x_min":-41,"x_max":680,"o":"m 212 172 q 272 196 248 172 q 306 262 296 220 q 309 290 307 278 q 306 315 310 302 q 298 338 302 328 q 287 359 295 348 q 273 378 279 370 q 256 396 267 387 q 238 412 246 406 q 220 427 231 418 q 117 559 145 490 q 101 641 101 599 q 110 722 101 682 q 232 929 138 852 q 451 1005 327 1005 q 680 932 575 1005 l 570 758 q 509 793 519 789 q 489 803 499 798 q 473 810 479 808 q 458 814 467 812 q 426 819 441 819 q 376 794 397 819 q 345 726 355 769 q 342 696 340 711 q 346 669 345 680 q 355 645 347 658 q 368 624 362 633 q 385 605 374 616 q 425 571 404 587 q 533 442 502 510 q 553 359 553 401 q 545 280 553 317 q 422 63 515 138 q 191 -13 330 -13 q -41 46 52 -13 l 6 269 q 212 172 133 172 z "},"T":{"ha":660,"x_min":94,"x_max":738,"o":"m 699 805 l 514 805 l 343 0 l 107 0 l 278 805 l 94 805 l 133 991 l 738 991 l 699 805 z "},"U":{"ha":843,"x_min":52,"x_max":855,"o":"m 720 354 q 577 81 682 176 q 312 -13 471 -13 q 90 81 153 -13 q 52 230 52 138 q 66 357 52 287 l 201 991 l 437 991 l 300 344 q 290 262 290 296 q 357 174 290 174 q 432 217 399 174 q 481 340 465 260 l 620 991 l 855 991 l 720 354 z "},"V":{"ha":730,"x_min":98,"x_max":842,"o":"m 338 991 l 338 393 q 338 365 338 376 l 604 991 l 842 991 l 399 0 l 120 0 l 98 991 l 338 991 z "},"W":{"ha":1136,"x_min":89,"x_max":1227,"o":"m 1227 991 l 838 0 l 562 0 l 574 516 l 574 533 l 568 513 l 365 0 l 89 0 l 119 991 l 353 991 l 323 436 l 322 412 l 553 991 l 792 991 l 778 433 l 778 409 l 991 991 l 1227 991 z "},"X":{"ha":702,"x_min":-109,"x_max":793,"o":"m 404 739 l 546 991 l 793 991 l 481 507 l 600 0 l 355 0 l 300 283 l 136 0 l -109 0 l 227 515 l 117 991 l 356 991 l 404 739 z "},"Y":{"ha":688,"x_min":98,"x_max":800,"o":"m 441 400 l 356 0 l 121 0 l 205 393 l 98 991 l 347 991 l 385 684 q 553 991 427 759 l 800 991 l 441 400 z "},"Z":{"ha":642,"x_min":-71,"x_max":709,"o":"m 680 852 l 237 186 l 548 186 l 509 0 l -71 0 l -41 140 l 401 806 l 110 806 l 149 991 l 709 991 l 680 852 z "},"[":{"ha":427,"x_min":-73,"x_max":550,"o":"m 516 832 l 370 832 l 181 -54 l 328 -54 l 294 -214 l -73 -214 l 184 991 l 550 991 l 516 832 z "},"\\":{"ha":549,"x_min":77,"x_max":465,"o":"m 465 0 l 237 0 l 77 991 l 305 991 l 465 0 z "},"]":{"ha":427,"x_min":-130,"x_max":493,"o":"m 237 -214 l -130 -214 l -96 -54 l 51 -54 l 239 832 l 92 832 l 126 991 l 493 991 l 237 -214 z "},"^":{"ha":726,"x_min":-97,"x_max":677,"o":"m 677 347 l 470 347 l 359 733 l 107 347 l -97 347 l 342 997 l 475 997 l 677 347 z "},"_":{"ha":458,"x_min":-48,"x_max":499,"o":"m 473 -214 l -48 -214 l -22 -92 l 499 -92 l 473 -214 z "},"`":{"ha":742,"x_min":193,"x_max":570,"o":"m 196 1063 l 452 1063 q 544 924 477 1017 l 570 884 l 566 867 l 412 867 q 315 944 377 892 q 193 1050 252 996 l 196 1063 z "},"a":{"ha":705,"x_min":3,"x_max":659,"o":"m 158 690 q 435 770 301 770 q 623 701 570 770 q 659 583 659 655 q 649 503 659 546 l 542 0 l 361 0 l 353 61 q 161 -13 269 -13 q 74 7 109 -13 q 23 61 38 28 q 3 149 3 105 q 12 229 3 193 q 119 409 37 349 q 342 475 201 469 l 412 477 l 420 517 q 425 554 425 538 q 380 604 425 604 q 202 538 329 604 l 158 690 m 243 188 q 267 151 243 151 q 331 190 302 151 q 373 294 359 229 l 382 338 q 359 338 374 338 q 248 227 269 330 q 243 188 243 204 z "},"b":{"ha":736,"x_min":-25,"x_max":673,"o":"m 496 769 q 654 663 616 769 q 673 538 673 610 q 654 379 673 467 q 532 93 617 202 q 437 15 491 43 q 327 -13 384 -13 q 186 54 229 -13 l 155 0 l -25 0 l 197 1044 l 429 1044 l 375 792 l 368 760 l 357 723 q 496 769 416 769 m 268 239 q 271 208 268 221 q 309 165 280 165 q 420 382 374 165 q 438 518 438 467 q 398 593 438 593 q 344 554 372 593 q 291 398 317 514 l 288 380 q 268 239 268 289 z "},"c":{"ha":565,"x_min":33,"x_max":608,"o":"m 269 243 q 316 165 269 165 q 496 237 369 165 l 454 40 q 262 -13 358 -13 q 64 85 119 -13 q 33 228 33 142 q 51 374 33 292 q 185 671 93 574 q 427 769 278 769 q 523 754 474 769 q 608 713 572 740 l 511 543 q 408 592 439 592 q 339 538 368 592 q 289 389 309 485 q 269 243 269 293 z "},"d":{"ha":736,"x_min":5,"x_max":764,"o":"m 184 -13 q 100 5 136 -13 q 45 55 64 23 q 15 124 26 86 q 5 208 5 163 q 19 364 5 297 q 50 481 33 431 q 95 586 67 532 q 158 679 123 640 q 241 744 192 718 q 347 769 291 769 q 467 723 427 769 q 478 787 477 779 l 533 1044 l 764 1044 l 541 0 l 359 0 l 354 55 q 184 -13 281 -13 m 411 524 q 368 591 411 590 q 258 374 303 591 q 239 235 239 286 q 278 163 239 163 q 331 191 312 163 q 349 220 342 208 q 363 261 355 233 q 374 304 371 290 q 382 343 377 319 q 411 524 411 471 z "},"e":{"ha":686,"x_min":37,"x_max":658,"o":"m 290 -13 q 174 8 224 -13 q 94 65 123 29 q 37 251 37 137 q 50 372 37 308 q 85 491 64 435 q 140 599 107 547 q 215 688 174 650 q 313 747 257 725 q 428 769 369 769 q 529 755 488 769 q 594 720 570 741 q 633 667 618 698 q 658 547 658 616 q 644 426 658 494 l 621 319 l 273 319 q 268 262 268 287 q 353 156 268 156 q 572 233 427 156 l 532 47 q 290 -13 419 -13 m 433 543 q 397 607 433 607 q 309 474 345 607 l 426 474 q 433 543 433 515 z "},"f":{"ha":469,"x_min":-4,"x_max":614,"o":"m 460 1051 q 614 1012 542 1051 l 522 846 q 442 876 467 876 q 396 795 414 876 l 388 755 l 508 755 l 473 589 l 353 589 l 227 0 l -4 0 l 121 589 l 37 589 l 60 694 l 155 747 l 165 798 q 264 989 193 928 q 460 1051 335 1051 z "},"g":{"ha":667,"x_min":-69,"x_max":762,"o":"m 157 294 q 100 442 100 344 q 108 505 100 475 q 220 700 135 631 q 435 769 305 769 q 534 754 496 769 l 762 754 l 736 629 l 648 612 q 654 561 654 588 q 648 504 654 534 q 534 312 621 380 q 326 243 446 243 q 289 245 298 243 q 264 208 269 227 q 271 181 260 189 q 307 173 281 173 l 412 173 q 565 119 519 173 q 595 22 595 82 q 588 -42 595 -7 q 451 -248 559 -176 q 171 -321 343 -321 q -24 -264 36 -321 q -69 -157 -69 -224 q -7 -1 -69 -66 q 102 71 36 44 q 58 151 58 103 q 60 174 58 161 q 93 238 68 210 q 157 294 118 266 m 404 624 q 335 504 361 624 q 326 437 326 463 q 355 389 326 389 q 420 505 396 389 q 430 578 430 551 q 404 624 430 624 m 306 -8 l 221 -8 q 181 -31 199 -8 q 155 -92 163 -53 q 152 -118 152 -103 q 163 -146 152 -134 q 215 -166 178 -166 q 316 -141 279 -166 q 364 -68 354 -115 q 368 -40 368 -54 q 356 -17 368 -26 q 306 -8 345 -8 z "},"h":{"ha":762,"x_min":-26,"x_max":684,"o":"m 501 769 q 659 698 615 769 q 684 589 684 655 q 673 489 684 545 l 568 0 l 336 0 l 431 448 q 443 536 443 502 q 410 593 443 593 q 338 536 368 593 q 282 363 307 479 l 205 0 l -26 0 l 196 1044 l 427 1044 l 376 804 q 355 723 373 787 q 501 769 419 769 z "},"i":{"ha":402,"x_min":-24,"x_max":416,"o":"m 167 931 q 217 1010 178 981 q 313 1039 256 1039 q 397 1010 370 1039 q 416 958 416 989 q 413 931 416 945 q 363 852 403 881 q 267 823 323 823 q 183 852 211 823 q 163 904 163 872 q 167 931 163 917 m 208 0 l -24 0 l 137 755 l 368 755 l 208 0 z "},"j":{"ha":355,"x_min":-216,"x_max":404,"o":"m 155 931 q 205 1010 166 981 q 301 1039 243 1039 q 385 1009 358 1039 q 404 958 404 989 q 400 931 404 945 q 350 852 389 881 q 255 823 311 823 q 172 852 199 823 q 152 904 152 872 q 155 931 152 917 m -102 -321 q -216 -296 -168 -321 l -178 -117 q -100 -144 -116 -144 q -46 -47 -66 -144 l 124 755 l 355 755 l 180 -70 q 81 -256 155 -191 q -102 -321 7 -321 z "},"k":{"ha":696,"x_min":-26,"x_max":743,"o":"m 321 551 l 313 519 l 500 755 l 743 755 l 484 443 l 592 0 l 353 0 l 292 283 q 276 272 287 280 q 259 258 266 263 l 204 0 l -26 0 l 196 1044 l 427 1044 l 321 551 z "},"l":{"ha":401,"x_min":-26,"x_max":427,"o":"m 205 0 l -26 0 l 196 1044 l 427 1044 l 205 0 z "},"m":{"ha":1120,"x_min":3,"x_max":1073,"o":"m 355 755 l 355 702 q 533 769 429 769 q 697 680 659 769 q 891 769 776 769 q 1073 591 1073 769 q 1061 489 1073 545 l 956 0 l 724 0 l 820 448 q 831 537 831 503 q 800 593 831 593 q 729 540 758 593 q 674 368 699 487 l 595 0 l 363 0 l 459 448 q 471 536 471 502 q 438 593 471 593 q 397 579 416 593 q 366 546 378 566 q 343 495 354 527 q 320 409 328 449 q 311 363 312 370 l 233 0 l 3 0 l 163 755 l 355 755 z "},"n":{"ha":762,"x_min":3,"x_max":714,"o":"m 355 755 l 355 702 q 535 769 431 769 q 714 593 714 769 q 702 489 714 547 l 597 0 l 365 0 l 460 448 q 472 536 472 502 q 439 593 472 593 q 402 582 419 593 q 375 554 385 570 q 354 512 364 538 q 338 464 343 485 l 324 411 q 311 363 316 380 l 234 0 l 3 0 l 163 755 l 355 755 z "},"o":{"ha":726,"x_min":37,"x_max":687,"o":"m 183 651 q 207 679 183 651 q 299 738 231 707 q 439 769 367 769 q 560 746 512 769 q 635 686 608 724 q 674 600 662 648 q 687 502 687 551 q 673 379 687 444 q 531 92 636 199 q 278 -13 429 -13 q 76 94 139 -13 q 37 252 37 160 q 54 385 37 311 q 103 528 71 460 q 183 651 136 596 m 408 592 q 340 540 369 592 q 291 393 311 488 q 271 248 271 298 q 317 163 271 163 q 439 379 393 163 q 456 509 456 459 q 408 592 456 592 z "},"p":{"ha":736,"x_min":-31,"x_max":734,"o":"m 559 769 q 643 751 608 769 q 696 701 677 732 q 725 630 715 669 q 734 546 734 592 q 688 275 734 411 q 642 170 671 224 q 579 77 614 117 q 494 12 544 37 q 388 -13 444 -13 q 273 26 312 -13 q 268 -9 271 4 l 201 -321 l -31 -321 l 198 755 l 385 755 l 391 699 q 559 769 463 769 m 330 235 q 373 165 330 165 q 481 382 435 165 q 500 522 500 470 q 463 593 500 593 q 402 549 428 593 q 353 397 376 504 q 330 235 330 291 z "},"q":{"ha":736,"x_min":66,"x_max":764,"o":"m 247 -13 q 162 5 198 -13 q 107 55 126 23 q 77 124 87 86 q 66 208 66 162 q 80 357 66 294 q 107 463 94 420 q 140 551 120 505 q 186 635 159 597 q 244 704 212 673 q 407 769 313 769 q 542 705 502 769 l 563 755 l 764 755 l 535 -321 l 304 -321 l 373 -1 q 379 28 378 22 q 247 -13 323 -13 m 471 519 q 428 591 471 591 q 319 374 366 591 q 300 229 300 281 q 336 161 300 161 q 381 182 364 161 q 398 202 391 193 q 412 232 405 212 q 424 263 420 252 q 434 301 428 275 q 443 337 440 326 q 451 375 445 348 q 471 519 471 468 z "},"r":{"ha":525,"x_min":3,"x_max":594,"o":"m 505 769 q 594 752 547 769 l 527 550 q 458 569 477 569 q 372 523 408 569 q 317 388 336 477 l 234 0 l 3 0 l 163 755 l 361 755 l 359 701 q 505 769 422 769 z "},"s":{"ha":604,"x_min":2,"x_max":623,"o":"m 124 180 q 137 172 124 180 q 173 158 149 165 q 223 151 197 151 q 266 167 248 151 q 288 205 283 182 q 289 243 293 228 q 275 271 286 258 q 222 316 254 294 q 123 424 150 366 q 106 494 106 461 q 176 677 106 606 q 424 769 266 769 q 623 707 532 769 l 518 551 q 391 603 435 603 q 360 590 372 603 q 343 559 347 577 q 342 527 340 541 q 358 499 345 513 q 376 481 370 486 q 392 470 382 477 q 404 461 402 463 q 415 453 405 460 q 440 434 426 446 q 470 408 455 422 q 495 379 485 393 q 514 348 505 366 q 526 313 522 331 q 529 273 529 295 q 524 227 529 252 q 415 50 499 113 q 205 -13 331 -13 q 2 40 79 -13 l 44 237 q 85 205 71 216 q 124 180 99 195 z "},"t":{"ha":506,"x_min":42,"x_max":529,"o":"m 216 -13 q 42 142 42 -13 q 52 227 42 180 l 130 589 l 59 589 l 79 684 l 184 748 q 267 912 195 770 l 431 912 l 397 755 l 529 755 l 494 589 l 362 589 l 283 221 q 280 192 280 204 q 301 163 280 163 q 416 197 330 163 l 380 27 q 216 -13 313 -13 z "},"u":{"ha":764,"x_min":49,"x_max":761,"o":"m 229 -13 q 49 163 49 -13 q 61 267 49 210 l 165 755 l 397 755 l 302 309 q 291 220 291 254 q 323 163 291 163 q 408 235 380 163 q 451 393 431 291 l 528 755 l 761 755 l 601 0 l 408 0 l 406 53 q 229 -13 331 -13 z "},"v":{"ha":647,"x_min":73,"x_max":734,"o":"m 315 755 l 315 335 q 496 755 352 423 l 734 755 l 376 0 l 110 0 l 73 755 l 315 755 z "},"w":{"ha":1021,"x_min":81,"x_max":1091,"o":"m 519 422 q 355 0 480 320 l 81 0 l 90 755 l 322 755 l 304 375 l 454 755 l 729 755 l 715 370 l 864 755 l 1091 755 l 780 0 l 503 0 l 519 422 z "},"x":{"ha":633,"x_min":-80,"x_max":706,"o":"m 437 386 l 553 0 l 313 0 l 271 180 l 159 0 l -80 0 l 199 386 l 88 755 l 327 755 l 364 589 l 467 755 l 706 755 l 437 386 z "},"y":{"ha":646,"x_min":-87,"x_max":767,"o":"m 243 -245 q 222 -264 243 -245 q 148 -302 201 -283 q 33 -321 94 -321 q -87 -303 -29 -321 l -49 -125 q 36 -144 8 -144 q 144 -40 98 -144 l 165 4 l 106 755 l 345 755 l 357 351 q 526 755 385 420 l 767 755 l 385 -42 q 319 -158 353 -109 q 243 -245 286 -207 z "},"z":{"ha":535,"x_min":-54,"x_max":578,"o":"m 549 618 l 244 169 l 463 169 l 427 0 l -54 0 l -27 125 l 286 587 l 85 587 l 121 755 l 578 755 l 549 618 z "},"{":{"ha":578,"x_min":16,"x_max":668,"o":"m 398 278 q 394 243 398 262 l 350 36 q 345 -2 345 14 q 351 -24 345 -18 q 448 -46 369 -43 l 412 -214 q 160 -170 223 -212 q 113 -66 113 -138 q 119 -13 113 -42 l 163 196 q 166 220 166 209 q 138 277 166 258 q 16 301 100 301 l 54 477 q 243 575 222 477 l 290 791 q 349 911 307 869 q 465 972 391 954 q 668 992 540 990 l 632 824 q 528 802 553 822 q 500 743 511 790 l 458 543 q 297 389 431 426 q 398 278 398 359 z "},"|":{"ha":705,"x_min":111,"x_max":594,"o":"m 305 -310 l 111 -310 l 400 1050 l 594 1050 l 305 -310 z "},"}":{"ha":578,"x_min":-90,"x_max":562,"o":"m 466 841 q 460 791 466 818 l 414 575 q 412 553 412 564 q 441 500 412 518 q 562 477 478 477 l 524 301 q 393 277 439 301 q 334 196 347 252 l 290 -12 q 180 -169 267 -118 l 180 -169 q -90 -214 105 -214 l -54 -46 q 48 -26 26 -43 q 79 36 69 -10 l 123 241 q 283 389 146 352 q 183 507 183 420 q 186 543 183 524 l 229 743 q 234 780 234 764 q 227 803 234 795 q 130 824 210 822 l 166 991 q 418 947 363 991 l 418 947 q 466 841 466 908 z "},"~":{"ha":654,"x_min":39,"x_max":615,"o":"m 433 388 q 299 419 368 388 q 174 450 231 450 q 39 387 117 450 l 71 534 q 222 591 138 591 q 288 584 256 591 q 361 557 319 576 q 480 529 424 529 q 543 546 507 529 q 615 592 579 562 l 584 445 q 433 388 517 388 z "},"¡":{"ha":363,"x_min":-66,"x_max":401,"o":"m 121 642 q 177 733 134 701 q 286 765 220 765 q 380 732 351 765 q 401 675 401 711 q 397 642 401 660 q 342 552 385 584 q 233 521 299 521 q 137 552 166 521 q 117 610 117 574 q 121 642 117 625 m 205 -243 l -66 -243 l 113 438 l 315 438 l 205 -243 z "},"¢":{"ha":629,"x_min":50,"x_max":632,"o":"m 287 370 q 334 289 287 289 q 517 363 388 289 l 474 165 q 349 117 408 127 l 322 -13 l 155 -13 l 184 125 q 50 358 50 178 q 66 500 50 421 q 171 753 100 656 q 345 886 242 850 l 370 1003 l 538 1003 l 515 892 q 632 843 574 880 l 531 671 q 428 720 456 720 q 358 667 388 720 q 308 516 328 613 q 287 370 287 420 z "},"£":{"ha":629,"x_min":-88,"x_max":703,"o":"m 499 1005 q 703 947 612 1005 l 597 774 q 471 825 521 825 q 401 717 425 825 l 375 591 l 534 591 l 499 429 l 340 429 l 325 355 q 224 189 303 253 l 555 189 l 514 0 l -88 0 l -52 170 q 49 243 21 205 q 88 340 75 275 l 107 429 l 5 429 l 39 591 l 142 591 l 169 721 q 283 932 199 859 q 499 1005 368 1005 z "},"¤":{"ha":741,"x_min":-17,"x_max":749,"o":"m 140 621 l 73 707 l 219 827 l 290 737 q 423 764 353 764 q 541 736 493 764 l 650 827 l 749 709 l 644 623 q 657 545 657 585 q 588 358 657 445 l 654 275 l 509 155 l 437 245 q 307 218 374 218 q 184 243 240 218 l 77 156 l -17 276 l 85 359 q 71 437 71 397 q 140 621 71 529 m 456 574 q 389 608 429 608 q 311 576 350 608 q 262 490 273 543 q 258 458 258 473 q 274 408 258 429 q 340 374 301 374 q 418 406 380 374 q 469 490 457 438 q 472 522 472 507 q 456 574 472 553 z "},"¥":{"ha":629,"x_min":-41,"x_max":758,"o":"m 471 497 l 588 497 l 558 356 l 397 356 l 384 292 l 545 292 l 515 151 l 354 151 l 322 0 l 89 0 l 121 151 l -41 151 l -12 292 l 151 292 l 164 356 l 2 356 l 32 497 l 150 497 l 73 991 l 317 991 l 347 667 l 513 991 l 758 991 l 471 497 z "},"¦":{"ha":690,"x_min":99,"x_max":582,"o":"m 463 489 l 269 489 l 388 1050 l 582 1050 l 463 489 m 293 -310 l 99 -310 l 218 252 l 412 252 l 293 -310 z "},"§":{"ha":578,"x_min":-82,"x_max":640,"o":"m 422 338 q 469 237 469 293 q 465 199 469 220 q 360 36 443 94 q 141 -23 278 -23 q -82 24 5 -23 l -47 189 q 162 123 77 123 q 252 187 239 123 q 243 226 256 208 q 195 267 230 244 l 196 267 q 78 354 106 322 q 35 425 43 395 q 28 477 28 454 q 33 526 28 501 q 148 687 54 627 q 100 802 100 734 q 106 850 100 825 q 205 998 125 941 q 399 1055 285 1055 q 640 1000 514 1055 l 554 847 q 490 876 513 867 q 372 906 419 906 q 335 891 350 906 q 314 842 314 871 q 325 809 314 825 q 372 770 336 793 l 420 737 q 525 635 502 683 q 543 566 543 598 q 422 338 543 427 m 332 509 q 267 607 332 564 q 233 539 243 582 q 231 511 231 525 q 237 486 231 497 q 293 433 254 458 l 304 425 q 326 473 320 448 q 332 509 332 498 z "},"¨":{"ha":753,"x_min":131,"x_max":629,"o":"m 134 958 q 176 1029 143 1004 q 256 1054 208 1054 q 327 1028 304 1054 q 342 983 342 1009 q 340 958 342 971 q 297 890 330 916 q 216 865 264 865 q 146 890 168 865 q 131 933 131 907 q 134 958 131 945 m 420 958 q 463 1029 430 1004 q 543 1054 495 1054 q 614 1028 591 1054 q 629 983 629 1009 q 627 958 629 971 q 584 890 617 916 q 503 865 551 865 q 433 890 454 865 q 418 933 418 907 q 420 958 418 945 z "},"©":{"ha":1131,"x_min":106,"x_max":1025,"o":"m 224 720 q 424 885 307 825 q 659 945 541 945 q 869 887 778 945 q 1000 724 960 829 q 1025 603 1025 661 q 906 271 1025 420 q 708 107 823 167 q 470 47 593 47 q 255 109 347 47 q 127 274 164 171 q 106 392 106 336 q 224 720 106 570 m 907 671 q 808 799 879 751 q 641 846 736 846 q 455 800 546 846 q 299 672 364 753 q 214 496 235 591 q 206 413 206 458 q 224 319 206 369 q 326 191 254 237 q 492 145 398 145 q 677 192 586 145 q 832 320 768 239 q 916 496 896 400 q 924 579 924 534 q 907 671 924 623 m 527 216 q 346 290 401 216 q 311 412 311 338 q 321 498 311 452 q 431 701 349 628 q 639 774 515 774 q 821 728 738 774 l 740 606 q 622 639 684 639 q 537 602 572 639 q 488 496 503 566 q 481 432 481 460 q 564 351 481 351 q 726 392 646 351 l 697 254 q 527 216 614 216 z "},"ª":{"ha":449,"x_min":-20,"x_max":429,"o":"m 70 932 q 276 994 182 994 q 429 865 429 994 q 422 808 429 840 l 357 503 l 227 503 l 225 531 q 103 494 172 494 q 3 533 35 494 q -20 602 -20 559 q -14 652 -20 625 q 60 767 3 729 q 229 812 118 805 l 256 813 q 258 832 258 823 q 229 869 258 869 q 96 815 197 869 l 70 932 m 157 653 q 153 628 153 639 q 161 616 153 616 q 205 639 186 616 q 234 709 227 665 l 218 708 q 157 653 167 703 z "},"«":{"ha":760,"x_min":16,"x_max":783,"o":"m 265 381 l 363 149 l 170 52 l 16 372 l 20 389 l 309 710 l 462 614 l 265 381 m 586 381 l 684 149 l 490 52 l 337 372 l 341 389 l 629 710 l 783 614 l 586 381 z "},"¬":{"ha":609,"x_min":47,"x_max":604,"o":"m 517 165 l 331 165 l 382 407 l 47 407 l 82 572 l 604 572 l 517 165 z "},"­":{"ha":425,"x_min":-5,"x_max":424,"o":"m 385 284 l -5 284 l 35 467 l 424 467 l 385 284 z "},"®":{"ha":1131,"x_min":106,"x_max":1025,"o":"m 224 720 q 424 885 307 825 q 659 945 541 945 q 869 887 778 945 q 1000 724 960 829 q 1025 603 1025 661 q 906 271 1025 420 q 708 107 823 167 q 470 47 593 47 q 255 109 347 47 q 127 274 164 171 q 106 392 106 336 q 224 720 106 570 m 907 671 q 808 799 879 751 q 641 846 736 846 q 455 800 546 846 q 299 672 364 753 q 214 496 235 591 q 206 413 206 458 q 224 319 206 369 q 326 191 254 237 q 492 145 398 145 q 677 192 586 145 q 832 320 768 239 q 916 496 896 400 q 924 579 924 534 q 907 671 924 623 m 595 768 q 808 644 808 768 q 804 608 808 627 q 690 463 782 503 l 759 246 l 586 246 l 540 437 l 519 437 l 478 246 l 311 246 l 421 768 l 595 768 m 548 543 q 635 601 622 543 q 637 621 637 609 q 625 642 637 632 q 572 652 612 652 l 564 652 l 541 543 l 548 543 z "},"¯":{"ha":681,"x_min":-24,"x_max":705,"o":"m 678 1055 l -24 1055 l 3 1183 l 705 1183 l 678 1055 z "},"°":{"ha":550,"x_min":30,"x_max":516,"o":"m 141 936 q 183 970 141 936 q 323 1005 224 1005 q 476 936 421 1005 q 516 820 516 885 q 510 768 516 795 q 405 600 489 669 q 222 531 321 531 q 69 600 124 531 q 30 715 30 650 q 36 768 30 741 q 141 936 57 866 m 353 833 q 292 861 331 861 q 221 833 254 861 q 178 747 178 798 q 193 702 178 722 q 253 675 214 675 q 324 702 292 675 q 368 788 368 738 q 353 833 368 814 z "},"±":{"ha":609,"x_min":-48,"x_max":595,"o":"m 393 407 l 341 165 l 509 165 l 474 0 l -48 0 l -13 165 l 153 165 l 205 407 l 38 407 l 73 572 l 240 572 l 292 818 l 480 818 l 428 572 l 595 572 l 560 407 l 393 407 z "},"²":{"ha":453,"x_min":-41,"x_max":432,"o":"m 285 1005 q 407 958 369 1005 q 432 876 432 924 q 362 703 432 783 q 260 602 324 659 q 249 591 253 595 l 189 537 l 380 537 l 348 386 l -41 386 l -16 506 l 140 660 q 266 852 307 822 q 240 859 255 859 q 119 791 201 859 l 66 908 q 285 1005 174 1005 z "},"³":{"ha":453,"x_min":-27,"x_max":429,"o":"m 315 703 q 386 596 386 671 q 382 562 386 580 q 299 424 363 474 q 132 374 234 374 q -27 422 31 374 l 3 563 q 153 509 64 509 q 221 572 208 509 q 224 596 224 583 q 216 623 224 610 q 172 643 203 643 l 111 643 l 132 743 l 184 743 q 234 765 214 743 q 262 821 255 787 q 259 855 267 842 q 235 868 251 868 q 111 824 184 868 l 74 920 q 182 985 132 966 q 273 1004 231 1004 q 344 993 315 1004 q 425 911 409 969 q 429 877 429 895 q 425 838 429 859 q 315 703 405 746 z "},"´":{"ha":742,"x_min":124,"x_max":578,"o":"m 578 1062 l 576 1050 q 419 949 511 1006 q 279 867 326 892 l 124 867 l 128 884 q 277 1016 256 996 q 323 1062 298 1036 l 578 1062 z "},"¶":{"ha":721,"x_min":48,"x_max":781,"o":"m 225 356 q 68 441 106 356 q 48 550 48 485 q 66 701 48 616 q 183 966 104 879 q 391 1053 262 1053 l 781 1053 l 521 -171 l 362 -171 l 589 898 l 541 898 l 314 -171 l 155 -171 l 267 359 q 225 356 250 356 z "},"·":{"ha":361,"x_min":37,"x_max":320,"o":"m 94 581 q 115 597 94 581 q 203 613 136 613 q 300 581 271 613 q 320 524 320 559 q 316 490 320 509 q 261 400 304 433 q 151 368 218 368 q 56 400 85 368 q 37 458 37 422 q 40 490 37 473 q 94 581 52 549 z "},"¸":{"ha":269,"x_min":-39,"x_max":274,"o":"m 224 -32 q 235 -38 224 -32 q 255 -60 245 -45 q 270 -91 265 -75 q 274 -120 274 -107 q 270 -149 274 -132 q 67 -292 239 -292 q 17 -286 43 -292 q -24 -274 -9 -280 l -39 -268 l -14 -153 q 71 -173 31 -173 q 117 -140 110 -173 q 101 -106 120 -122 q 62 -84 83 -91 l 41 -77 q 98 1 98 1 l 199 1 l 190 -16 q 224 -32 204 -18 z "},"¹":{"ha":453,"x_min":56,"x_max":401,"o":"m 273 386 l 104 386 l 172 704 l 193 785 l 110 718 l 56 829 l 267 991 l 401 991 l 273 386 z "},"º":{"ha":452,"x_min":1,"x_max":442,"o":"m 442 818 q 434 745 442 784 q 339 562 411 633 q 168 494 271 494 q 25 564 65 494 q 1 670 1 610 q 9 745 1 705 q 102 925 33 857 q 274 994 170 994 q 416 925 378 994 l 416 925 q 442 818 442 880 m 248 865 q 178 745 204 865 q 169 671 169 700 q 196 623 169 623 q 264 745 239 623 q 274 819 274 790 q 248 865 274 865 z "},"»":{"ha":760,"x_min":-33,"x_max":732,"o":"m 163 381 l 66 614 l 258 710 l 412 389 l 408 372 l 119 52 l -33 149 l 163 381 m 484 381 l 386 614 l 580 710 l 732 389 l 728 372 l 440 52 l 287 149 l 484 381 z "},"¼":{"ha":1069,"x_min":41,"x_max":947,"o":"m 233 0 l 41 0 l 754 991 l 947 991 l 233 0 m 298 386 l 130 386 l 197 704 l 218 785 l 136 718 l 81 829 l 292 991 l 427 991 l 298 386 m 861 239 l 926 239 l 898 105 l 832 105 l 810 1 l 641 1 l 663 105 l 459 105 l 482 216 l 780 610 l 939 610 l 861 239 m 629 239 l 692 239 l 715 353 l 629 239 z "},"½":{"ha":1069,"x_min":48,"x_max":998,"o":"m 239 0 l 48 0 l 762 991 l 954 991 l 239 0 m 310 386 l 141 386 l 209 704 l 230 785 l 147 718 l 94 829 l 304 991 l 439 991 l 310 386 m 851 608 q 972 560 935 608 q 998 479 998 528 q 891 265 998 372 q 815 195 871 245 l 755 140 l 946 140 l 914 -11 l 525 -11 l 551 109 l 707 263 q 832 454 873 425 q 806 463 821 463 q 685 394 767 463 l 632 511 q 851 608 740 608 z "},"¾":{"ha":1069,"x_min":13,"x_max":968,"o":"m 355 703 q 426 596 426 671 q 422 562 426 580 q 339 424 404 474 q 172 374 274 374 q 13 422 71 374 l 43 563 q 193 509 104 509 q 261 572 248 509 q 264 596 264 583 q 255 623 264 610 q 211 643 243 643 l 151 643 l 172 743 l 223 743 q 273 765 252 743 q 300 814 294 787 q 299 855 307 842 q 275 868 291 868 q 151 824 224 868 l 114 920 q 221 985 172 966 q 313 1004 271 1004 q 383 993 355 1004 q 464 911 448 969 q 468 877 468 895 q 464 838 468 859 q 355 703 444 746 m 254 0 l 63 0 l 776 991 l 968 991 l 254 0 m 859 239 l 925 239 l 897 105 l 831 105 l 808 1 l 640 1 l 662 105 l 458 105 l 481 216 l 779 610 l 938 610 l 859 239 m 627 239 l 690 239 l 714 353 l 627 239 z "},"¿":{"ha":517,"x_min":-60,"x_max":514,"o":"m 235 642 q 290 733 247 701 q 399 765 333 765 q 494 732 465 765 q 514 674 514 710 q 511 642 514 659 q 455 552 498 583 q 347 521 413 521 q 251 552 280 521 q 231 609 231 574 q 235 642 231 625 m 174 -28 q 214 -78 174 -78 q 391 -9 273 -78 l 435 -176 q 164 -258 298 -258 q -20 -193 31 -258 q -60 -75 -60 -144 q -54 -15 -60 -47 q 24 152 -34 79 q 108 236 46 181 q 187 318 170 291 l 187 317 q 212 382 203 341 l 224 438 l 436 438 l 422 376 q 379 265 409 313 q 287 161 349 217 q 203 75 224 106 l 204 75 q 178 4 187 48 q 174 -28 174 -14 z "},"À":{"ha":728,"x_min":-172,"x_max":615,"o":"m 232 1292 l 488 1292 q 581 1153 515 1243 l 607 1114 l 603 1097 l 448 1097 q 346 1177 414 1121 q 230 1280 279 1234 l 232 1292 m 615 0 l 376 0 l 373 243 l 173 243 l 66 0 l -172 0 l 286 996 l 580 996 l 615 0 m 372 431 l 368 692 q 256 431 365 683 l 372 431 z "},"Á":{"ha":728,"x_min":-172,"x_max":758,"o":"m 758 1291 l 756 1279 q 606 1183 705 1244 q 459 1096 507 1121 l 304 1096 l 308 1113 q 454 1242 421 1212 q 503 1291 487 1273 l 758 1291 m 615 0 l 376 0 l 373 243 l 173 243 l 66 0 l -172 0 l 286 996 l 580 996 l 615 0 m 372 431 l 368 692 q 256 431 338 619 l 372 431 z "},"Â":{"ha":728,"x_min":-172,"x_max":729,"o":"m 378 1292 l 613 1292 q 729 1114 650 1213 l 725 1097 l 573 1097 q 472 1186 531 1124 q 337 1097 384 1122 l 183 1097 l 187 1114 q 289 1202 231 1147 q 378 1292 348 1256 m 615 0 l 376 0 l 373 243 l 173 243 l 66 0 l -172 0 l 286 996 l 580 996 l 615 0 m 372 431 l 368 692 q 256 431 365 683 l 372 431 z "},"Ã":{"ha":728,"x_min":-170,"x_max":745,"o":"m 555 1069 q 454 1098 517 1069 q 362 1127 391 1127 q 307 1069 331 1127 l 199 1069 q 275 1223 228 1173 q 393 1273 322 1273 q 487 1244 423 1273 q 582 1215 551 1215 q 637 1274 613 1215 l 745 1274 q 669 1122 718 1174 q 555 1069 621 1069 m 616 0 l 378 0 l 375 243 l 175 243 l 68 0 l -170 0 l 288 996 l 581 996 l 616 0 m 374 431 l 370 692 q 257 431 353 650 l 374 431 z "},"Ä":{"ha":728,"x_min":-171,"x_max":734,"o":"m 238 1187 q 280 1258 248 1233 q 361 1283 313 1283 q 431 1257 409 1283 q 447 1212 447 1238 q 444 1187 447 1200 q 402 1119 435 1145 q 321 1094 369 1094 q 251 1119 273 1094 q 235 1162 235 1136 q 238 1187 235 1174 m 525 1187 q 567 1258 534 1233 q 648 1283 600 1283 q 718 1257 696 1283 q 734 1212 734 1238 q 731 1187 734 1200 q 689 1119 722 1145 q 608 1094 656 1094 q 537 1119 559 1094 q 522 1162 522 1136 q 525 1187 522 1174 m 616 0 l 377 0 l 374 243 l 174 243 l 67 0 l -171 0 l 287 996 l 581 996 l 616 0 m 373 431 l 370 692 q 256 431 326 589 l 373 431 z "},"Å":{"ha":728,"x_min":-165,"x_max":629,"o":"m 306 996 q 300 1031 300 1012 q 305 1070 300 1050 q 371 1180 319 1139 q 494 1222 422 1222 q 602 1180 566 1222 q 629 1107 629 1150 q 625 1072 629 1090 q 587 991 615 1025 l 622 0 l 383 0 l 380 243 l 180 243 l 73 0 l -165 0 l 294 996 l 306 996 m 413 1070 q 411 1059 413 1070 q 418 1034 408 1048 q 450 1020 428 1020 q 490 1034 473 1020 q 514 1082 514 1053 q 504 1108 514 1097 q 473 1120 494 1120 q 435 1106 452 1120 q 413 1070 418 1093 m 379 431 l 376 692 q 262 431 359 650 l 379 431 z "},"Æ":{"ha":953,"x_min":-139,"x_max":1015,"o":"m 725 808 l 682 608 l 916 608 l 876 423 l 643 423 l 593 186 l 844 186 l 805 0 l 316 0 l 368 243 l 224 243 q 98 0 134 69 l -139 0 l 392 991 l 1015 991 l 977 808 l 725 808 m 517 808 l 490 823 l 467 713 l 323 431 l 408 431 l 467 713 l 505 786 q 516 808 510 799 l 517 808 z "},"Ç":{"ha":629,"x_min":31,"x_max":749,"o":"m 589 799 q 581 803 589 799 q 549 813 573 807 q 495 820 525 820 q 435 797 466 820 q 383 739 404 773 q 343 658 361 705 q 294 489 315 587 q 273 321 273 391 q 372 173 273 173 q 576 245 436 173 l 534 45 q 322 -13 437 -11 l 320 -16 q 355 -32 335 -18 q 386 -60 376 -45 q 405 -119 405 -88 q 401 -149 405 -132 q 198 -292 370 -292 q 148 -286 174 -292 q 106 -274 121 -280 l 92 -268 l 116 -153 q 201 -173 162 -173 q 247 -140 240 -173 q 232 -106 251 -122 q 193 -84 214 -91 l 172 -77 q 226 -4 214 -20 q 107 60 153 13 q 46 172 62 107 q 31 304 31 237 q 51 483 31 391 q 97 647 71 575 q 166 786 124 719 q 259 900 208 852 q 380 977 311 948 q 520 1005 450 1005 q 643 987 591 1005 q 749 928 694 970 l 646 761 q 622 780 639 768 q 589 799 605 791 z "},"È":{"ha":578,"x_min":-83,"x_max":618,"o":"m 161 1292 l 418 1292 q 510 1153 445 1243 l 536 1114 l 532 1097 l 378 1097 q 276 1177 343 1121 q 159 1280 208 1234 l 161 1292 m 580 808 l 326 808 l 283 608 l 519 608 l 479 423 l 243 423 l 193 186 l 448 186 l 408 0 l -83 0 l 127 991 l 618 991 l 580 808 z "},"É":{"ha":578,"x_min":-83,"x_max":711,"o":"m 711 1291 l 709 1279 q 559 1183 658 1244 q 412 1096 460 1121 l 258 1096 l 261 1113 q 407 1242 374 1212 q 456 1291 440 1273 l 711 1291 m 580 808 l 326 808 l 283 608 l 519 608 l 479 423 l 243 423 l 193 186 l 448 186 l 408 0 l -83 0 l 127 991 l 618 991 l 580 808 z "},"Ê":{"ha":578,"x_min":-83,"x_max":669,"o":"m 318 1292 l 553 1292 q 669 1114 590 1213 l 665 1097 l 513 1097 q 412 1186 471 1124 q 277 1097 323 1122 l 123 1097 l 127 1114 q 229 1202 170 1147 q 318 1292 288 1256 m 580 808 l 326 808 l 283 608 l 519 608 l 479 423 l 243 423 l 193 186 l 448 186 l 408 0 l -83 0 l 127 991 l 618 991 l 580 808 z "},"Ë":{"ha":578,"x_min":-83,"x_max":675,"o":"m 180 1187 q 222 1258 189 1233 q 302 1283 254 1283 q 373 1257 351 1283 q 389 1212 389 1238 q 386 1187 389 1200 q 343 1119 376 1145 q 262 1094 311 1094 q 193 1119 214 1094 q 177 1162 177 1136 q 180 1187 177 1174 m 467 1187 q 509 1258 476 1233 q 589 1283 541 1283 q 660 1257 637 1283 q 675 1212 675 1238 q 673 1187 675 1200 q 630 1119 663 1145 q 549 1094 597 1094 q 479 1119 501 1094 q 464 1162 464 1136 q 467 1187 464 1174 m 581 808 l 326 808 l 283 608 l 519 608 l 481 423 l 245 423 l 194 186 l 448 186 l 409 0 l -83 0 l 128 991 l 620 991 l 581 808 z "},"Ì":{"ha":403,"x_min":-52,"x_max":442,"o":"m 67 1292 l 323 1292 q 416 1153 351 1243 l 442 1114 l 438 1097 l 283 1097 q 181 1177 249 1121 q 65 1280 114 1234 l 67 1292 m 174 0 l -52 0 l 158 991 l 385 991 l 174 0 z "},"Í":{"ha":403,"x_min":-52,"x_max":597,"o":"m 597 1291 l 595 1279 q 444 1183 543 1244 q 298 1096 345 1121 l 143 1096 l 146 1113 q 293 1242 260 1212 q 342 1291 326 1273 l 597 1291 m 174 0 l -52 0 l 158 991 l 385 991 l 174 0 z "},"Î":{"ha":403,"x_min":-52,"x_max":566,"o":"m 216 1292 l 450 1292 q 566 1114 488 1213 l 562 1097 l 410 1097 q 309 1186 368 1124 q 174 1097 221 1122 l 20 1097 l 24 1114 q 126 1202 68 1147 q 216 1292 185 1256 m 174 0 l -52 0 l 158 991 l 385 991 l 174 0 z "},"Ï":{"ha":403,"x_min":-52,"x_max":571,"o":"m 75 1187 q 117 1258 85 1233 q 198 1283 150 1283 q 269 1257 246 1283 q 284 1212 284 1238 q 281 1187 284 1200 q 239 1119 272 1145 q 158 1094 206 1094 q 88 1119 110 1094 q 73 1162 73 1136 q 75 1187 73 1174 m 362 1187 q 404 1258 372 1233 q 485 1283 437 1283 q 555 1257 533 1283 q 571 1212 571 1238 q 568 1187 571 1200 q 526 1119 559 1145 q 445 1094 493 1094 q 374 1119 397 1094 q 359 1162 359 1136 q 362 1187 359 1174 m 175 0 l -52 0 l 159 991 l 386 991 l 175 0 z "},"Ð":{"ha":821,"x_min":-25,"x_max":792,"o":"m 492 991 q 632 966 572 991 q 726 897 692 941 q 792 671 792 813 q 773 506 792 595 q 725 343 754 417 q 652 204 696 269 q 552 96 608 140 q 421 25 496 51 q 260 0 347 0 l -5 0 l 82 410 l -25 410 l 9 570 l 116 570 l 205 991 l 492 991 m 300 186 q 440 264 383 186 q 530 500 496 342 q 550 660 550 594 q 447 808 550 808 l 404 808 l 353 570 l 420 570 l 387 410 l 319 410 l 272 186 l 300 186 z "},"Ñ":{"ha":856,"x_min":-80,"x_max":863,"o":"m 618 1069 q 517 1098 581 1069 q 425 1127 454 1127 q 370 1069 394 1127 l 262 1069 q 338 1223 291 1173 q 456 1273 385 1273 q 550 1244 486 1273 q 644 1215 614 1215 q 700 1274 676 1215 l 808 1274 q 732 1122 781 1174 q 618 1069 684 1069 m 652 0 l 382 0 l 262 557 l 144 0 l -80 0 l 131 991 l 402 991 l 522 435 l 640 991 l 863 991 l 652 0 z "},"Ò":{"ha":813,"x_min":-27,"x_max":768,"o":"m 268 1292 l 524 1292 q 616 1153 551 1243 l 643 1114 l 639 1097 l 484 1097 q 387 1173 450 1121 q 266 1280 325 1225 l 268 1292 m 326 979 q 361 993 326 979 q 480 1006 397 1006 q 623 979 564 1006 q 713 905 682 951 q 768 690 768 825 q 747 510 768 608 q 701 341 727 413 q 633 202 674 269 q 539 89 591 136 q 417 15 488 43 q 262 -13 346 -13 q 119 15 179 -13 q 27 90 60 43 q -27 307 -27 168 q -7 487 -27 391 q 40 655 14 583 q 109 793 67 727 q 202 905 150 859 q 326 979 254 951 m 214 320 q 302 174 214 174 q 503 497 435 174 q 527 682 527 608 q 441 820 527 820 q 322 738 374 820 q 236 497 270 656 q 214 320 214 392 z "},"Ó":{"ha":813,"x_min":-27,"x_max":808,"o":"m 808 1291 l 806 1279 q 656 1183 755 1244 q 509 1096 557 1121 l 355 1096 l 358 1113 q 504 1242 471 1212 q 553 1291 537 1273 l 808 1291 m 326 979 q 361 993 326 979 q 480 1006 397 1006 q 623 979 564 1006 q 713 905 682 951 q 768 690 768 825 q 747 510 768 608 q 701 341 727 413 q 633 202 674 269 q 540 89 591 136 q 417 15 488 43 q 262 -13 346 -13 q 119 15 179 -13 q 28 89 60 43 q -16 194 -4 136 q -27 288 -27 252 q -7 485 -27 387 q 40 655 14 583 q 109 793 67 727 q 202 905 150 859 q 326 979 254 951 m 214 320 q 302 174 214 174 q 503 497 435 174 q 527 682 527 608 q 441 820 527 820 q 322 738 374 820 q 236 497 270 656 q 214 320 214 392 z "},"Ô":{"ha":813,"x_min":-27,"x_max":771,"o":"m 420 1292 l 655 1292 q 771 1114 692 1213 l 767 1097 l 615 1097 q 514 1186 573 1124 q 379 1097 426 1122 l 225 1097 l 229 1114 q 331 1202 273 1147 q 420 1292 390 1256 m 326 979 q 361 993 326 979 q 480 1006 397 1006 q 623 979 564 1006 q 713 905 682 951 q 768 690 768 825 q 747 510 768 608 q 701 341 727 413 q 633 202 674 269 q 539 89 591 136 q 417 15 488 43 q 262 -13 346 -13 q 119 15 179 -13 q 27 90 60 43 q -27 307 -27 168 q -7 487 -27 391 q 40 655 14 583 q 109 793 67 727 q 202 905 150 859 q 326 979 254 951 m 214 320 q 302 174 214 174 q 503 497 435 174 q 527 682 527 608 q 441 820 527 820 q 322 738 374 820 q 236 497 270 656 q 214 320 214 392 z "},"Õ":{"ha":813,"x_min":-25,"x_max":789,"o":"m 599 1069 q 497 1098 561 1069 q 406 1127 434 1127 q 350 1069 374 1127 l 243 1069 q 318 1223 271 1173 q 436 1273 366 1273 q 530 1244 467 1273 q 625 1215 594 1215 q 680 1274 656 1215 l 789 1274 q 713 1122 762 1174 q 599 1069 664 1069 m 328 979 q 363 993 328 979 q 482 1006 399 1006 q 625 979 566 1006 q 715 905 684 951 q 770 690 770 825 q 749 510 770 608 q 702 341 729 413 q 634 202 675 269 q 541 89 593 136 q 418 15 490 43 q 264 -13 347 -13 q 121 15 180 -13 q 29 90 61 43 q -25 307 -25 169 q -5 487 -25 391 q 42 655 16 583 q 111 793 69 727 q 204 905 152 859 q 328 979 256 951 m 216 320 q 304 174 216 174 q 505 497 437 174 q 529 680 529 608 q 442 820 529 820 q 238 497 307 820 q 216 320 216 392 z "},"Ö":{"ha":813,"x_min":-26,"x_max":776,"o":"m 280 1187 q 322 1258 290 1233 q 403 1283 355 1283 q 473 1257 451 1283 q 489 1212 489 1238 q 486 1187 489 1200 q 444 1119 477 1145 q 363 1094 411 1094 q 293 1119 315 1094 q 277 1162 277 1136 q 280 1187 277 1174 m 567 1187 q 609 1258 576 1233 q 690 1283 642 1283 q 760 1257 738 1283 q 776 1212 776 1238 q 773 1187 776 1200 q 731 1119 764 1145 q 650 1094 698 1094 q 579 1119 602 1094 q 564 1162 564 1136 q 567 1187 564 1174 m 203 905 q 229 928 203 905 q 326 979 255 951 q 474 1006 397 1006 q 604 987 551 1006 q 689 933 656 968 q 766 748 757 861 q 768 690 768 720 q 748 508 768 602 q 702 341 728 413 q 633 202 675 269 q 541 89 592 136 q 418 15 489 43 q 263 -13 347 -13 q 120 15 180 -13 q 28 89 60 43 q -15 194 -3 136 q -26 288 -26 252 q -6 485 -26 387 q 41 655 15 583 q 110 793 68 727 q 203 905 151 859 m 215 320 q 303 174 215 174 q 505 497 435 174 q 528 680 528 608 q 441 820 528 820 q 323 738 374 820 q 237 497 271 656 q 215 320 215 392 z "},"×":{"ha":608,"x_min":29,"x_max":570,"o":"m 570 616 l 417 490 l 516 364 l 374 247 l 275 373 l 122 247 l 29 364 l 182 490 l 83 616 l 225 734 l 325 608 l 477 734 l 570 616 z "},"Ø":{"ha":813,"x_min":-32,"x_max":849,"o":"m 800 692 q 780 509 800 606 q 733 341 760 413 q 665 202 706 269 q 572 89 623 136 q 449 15 520 43 q 293 -13 378 -13 q 144 17 208 -13 l 81 -73 l -32 -9 l 50 105 q 5 302 5 181 q 25 486 5 389 q 72 655 45 583 q 140 793 99 727 q 234 905 182 859 q 357 979 286 951 q 517 1006 429 1006 q 670 971 606 1006 l 736 1063 l 849 1000 l 762 878 q 800 692 800 804 m 473 820 q 354 738 406 820 q 269 497 302 656 q 250 384 255 436 l 537 785 q 473 820 515 820 m 334 174 q 536 497 467 174 q 551 584 540 517 l 275 199 q 334 174 298 174 z "},"Ù":{"ha":767,"x_min":-24,"x_max":779,"o":"m 245 1292 l 501 1292 q 593 1153 528 1243 l 620 1114 l 616 1097 l 461 1097 q 364 1173 427 1121 q 243 1280 302 1225 l 245 1292 m 644 354 q 501 81 606 176 q 236 -13 395 -13 q 14 81 77 -13 q -24 230 -24 138 q -9 357 -24 287 l 125 991 l 361 991 l 224 344 q 214 262 214 296 q 281 174 214 174 q 356 217 323 174 q 406 340 389 260 l 544 991 l 779 991 l 644 354 z "},"Ú":{"ha":767,"x_min":-24,"x_max":786,"o":"m 786 1291 l 784 1279 q 633 1183 732 1244 q 487 1096 534 1121 l 332 1096 l 336 1113 q 482 1242 449 1212 q 531 1291 515 1273 l 786 1291 m 644 354 q 501 81 606 176 q 236 -13 395 -13 q 14 81 77 -13 q -24 230 -24 138 q -9 357 -24 287 l 125 991 l 361 991 l 224 344 q 214 262 214 296 q 281 174 214 174 q 356 217 323 174 q 406 340 389 260 l 544 991 l 779 991 l 644 354 z "},"Û":{"ha":767,"x_min":-24,"x_max":779,"o":"m 398 1292 l 633 1292 q 749 1114 670 1213 l 745 1097 l 593 1097 q 492 1186 551 1124 q 357 1097 404 1122 l 203 1097 l 207 1114 q 309 1202 250 1147 q 398 1292 368 1256 m 644 354 q 501 81 606 176 q 236 -13 395 -13 q 14 81 77 -13 q -24 230 -24 138 q -9 357 -24 287 l 125 991 l 361 991 l 224 344 q 214 262 214 296 q 281 174 214 174 q 356 217 323 174 q 406 340 389 260 l 544 991 l 779 991 l 644 354 z "},"Ü":{"ha":767,"x_min":-23,"x_max":781,"o":"m 258 1187 q 300 1258 267 1233 q 380 1283 332 1283 q 451 1257 429 1283 q 467 1212 467 1238 q 464 1187 467 1200 q 421 1119 454 1145 q 340 1094 389 1094 q 270 1119 292 1094 q 255 1162 255 1136 q 258 1187 255 1174 m 545 1187 q 587 1258 554 1233 q 667 1283 619 1283 q 738 1257 715 1283 q 753 1212 753 1238 q 751 1187 753 1200 q 708 1119 741 1145 q 627 1094 675 1094 q 557 1119 579 1094 q 542 1162 542 1136 q 545 1187 542 1174 m 645 354 q 502 81 607 176 q 237 -13 396 -13 q 15 81 77 -13 q -23 229 -23 138 q -8 357 -23 286 l 127 991 l 363 991 l 225 344 q 215 262 215 296 q 282 174 215 174 q 357 217 325 174 q 406 340 389 260 l 545 991 l 781 991 l 645 354 z "},"Ý":{"ha":638,"x_min":37,"x_max":739,"o":"m 718 1291 l 716 1279 q 566 1183 665 1244 q 419 1096 467 1121 l 264 1096 l 268 1113 q 414 1242 381 1212 q 463 1291 447 1273 l 718 1291 m 379 400 l 294 0 l 60 0 l 143 393 l 37 991 l 285 991 l 323 684 l 492 991 l 739 991 l 379 400 z "},"Þ":{"ha":652,"x_min":-51,"x_max":655,"o":"m 399 838 q 655 626 655 838 q 644 527 655 581 q 507 280 610 366 q 243 194 404 194 l 227 194 l 186 0 l -51 0 l 159 991 l 397 991 l 364 838 l 399 838 m 271 378 q 355 412 323 378 q 404 520 387 446 q 410 577 410 552 q 341 655 410 655 l 326 655 l 267 378 l 271 378 z "},"ß":{"ha":738,"x_min":-64,"x_max":728,"o":"m 98 766 q 224 977 127 903 q 466 1051 321 1051 q 675 992 610 1051 q 728 873 728 943 q 723 827 728 851 q 607 645 703 727 l 567 611 q 527 558 531 580 q 530 524 523 537 q 599 447 547 497 q 664 351 651 396 q 671 298 671 328 q 664 235 671 269 q 552 52 639 117 q 332 -13 465 -13 q 172 26 237 -13 l 166 0 l -64 0 l 98 766 m 298 431 q 287 488 287 461 q 327 613 287 559 q 394 683 353 649 q 461 748 436 717 q 486 824 486 781 q 477 857 486 844 q 431 878 465 878 q 328 760 353 878 l 212 217 q 355 151 299 151 q 427 221 411 151 q 430 251 430 237 q 425 275 430 264 q 371 344 409 308 l 371 343 q 298 431 315 393 z "},"à":{"ha":635,"x_min":-66,"x_max":590,"o":"m 178 1063 l 434 1063 q 526 924 458 1017 l 552 884 l 548 867 l 393 867 q 296 944 359 892 q 175 1050 234 996 l 178 1063 m 90 690 q 367 770 233 770 q 555 701 501 770 q 590 584 590 655 q 581 503 590 547 l 473 0 l 293 0 l 285 61 q 93 -13 199 -13 q 5 7 41 -13 q -46 61 -31 28 q -66 149 -66 105 q -57 229 -66 193 q 51 409 -31 349 q 274 475 132 469 l 344 477 l 352 517 q 357 554 357 538 q 311 604 357 604 q 134 538 260 604 l 90 690 m 174 186 q 199 151 174 151 q 262 190 233 151 q 305 294 292 229 l 315 338 q 291 338 306 338 q 180 227 202 330 q 174 186 174 203 z "},"á":{"ha":635,"x_min":-66,"x_max":706,"o":"m 706 1062 l 704 1050 q 547 949 640 1006 q 407 867 454 892 l 252 867 l 256 884 q 405 1016 375 988 q 451 1062 435 1044 l 706 1062 m 90 690 q 367 770 233 770 q 555 701 501 770 q 590 584 590 655 q 581 503 590 547 l 474 0 l 294 0 l 285 61 q 94 -13 199 -13 q 5 7 41 -13 q -46 61 -31 28 q -66 149 -66 105 q -57 229 -66 193 q 51 409 -31 349 q 274 475 132 469 l 344 477 l 353 517 q 357 553 357 537 q 311 604 357 604 q 134 538 260 604 l 90 690 m 174 186 q 199 151 174 151 q 262 190 233 151 q 305 294 292 229 l 315 338 q 291 338 306 338 q 180 227 202 330 q 174 186 174 203 z "},"â":{"ha":635,"x_min":-66,"x_max":671,"o":"m 320 1062 l 555 1062 q 671 884 592 983 l 667 867 l 515 867 q 414 956 473 894 q 279 867 326 892 l 125 867 l 129 884 q 231 972 172 918 q 320 1062 290 1026 m 90 690 q 367 770 233 770 q 555 701 501 770 q 590 584 590 655 q 581 503 590 547 l 474 0 l 294 0 l 285 61 q 94 -13 199 -13 q 5 7 41 -13 q -46 61 -31 28 q -66 149 -66 105 q -57 229 -66 193 q 51 409 -31 349 q 274 475 132 469 l 344 477 l 353 517 q 357 553 357 537 q 311 604 357 604 q 134 538 260 604 l 90 690 m 174 186 q 199 151 174 151 q 262 190 233 151 q 305 294 292 229 l 315 338 q 291 338 306 338 q 180 227 202 330 q 174 186 174 203 z "},"ã":{"ha":635,"x_min":-64,"x_max":689,"o":"m 499 840 q 398 869 461 840 q 306 898 334 898 q 250 840 275 898 l 143 840 q 219 994 172 944 q 336 1044 266 1044 q 431 1015 366 1044 q 525 986 495 986 q 581 1044 557 986 l 689 1044 q 613 892 662 945 q 499 840 564 840 m 92 690 q 369 770 235 770 q 556 701 503 770 q 592 583 592 655 q 583 503 592 546 l 475 0 l 295 0 l 286 61 q 95 -13 202 -13 q 7 7 43 -13 q -43 61 -28 28 q -64 149 -64 105 q -55 229 -64 193 q 53 409 -29 349 q 276 475 134 469 l 346 477 l 354 517 q 359 554 359 538 q 313 604 359 604 q 136 538 262 604 l 92 690 m 176 186 q 201 151 176 151 q 264 190 235 151 q 307 294 293 229 l 316 338 q 293 338 308 338 q 182 227 203 330 q 176 186 176 203 z "},"ä":{"ha":635,"x_min":-65,"x_max":675,"o":"m 180 958 q 222 1029 189 1004 q 302 1054 254 1054 q 373 1028 351 1054 q 389 983 389 1009 q 386 958 389 971 q 344 890 377 916 q 262 865 311 865 q 193 890 214 865 q 177 933 177 907 q 180 958 177 945 m 467 958 q 509 1029 476 1004 q 589 1054 541 1054 q 660 1028 637 1054 q 675 983 675 1009 q 673 958 675 971 q 631 890 664 916 q 549 865 597 865 q 479 890 501 865 q 464 933 464 907 q 467 958 464 945 m 90 690 q 368 770 234 770 q 555 701 502 770 q 591 584 591 655 q 581 503 591 547 l 475 0 l 294 0 l 286 61 q 94 -13 200 -13 q 6 7 42 -13 q -45 61 -29 28 q -65 161 -65 106 q -56 229 -65 194 q 52 409 -31 349 q 275 475 134 469 l 345 477 l 353 517 q 357 553 357 537 q 312 604 357 604 q 134 538 261 604 l 90 690 m 175 186 q 199 151 175 151 q 263 190 234 151 q 306 294 292 229 l 315 338 q 292 338 307 338 q 180 227 203 330 q 175 186 175 203 z "},"å":{"ha":635,"x_min":-76,"x_max":588,"o":"m 330 1116 q 453 1157 381 1157 q 561 1115 524 1157 q 588 1041 588 1084 q 584 1006 588 1025 q 515 897 570 939 q 389 854 460 854 q 283 895 317 854 q 259 966 259 924 q 264 1005 259 984 q 330 1116 278 1073 m 464 1041 q 458 1048 464 1041 q 431 1055 452 1055 q 393 1041 410 1055 q 372 1005 376 1027 q 377 969 367 983 q 409 955 387 955 q 449 969 431 955 q 471 1005 467 983 q 464 1041 476 1027 m 79 690 q 357 770 223 770 q 545 701 491 770 q 580 584 580 655 q 570 503 580 547 l 464 0 l 283 0 l 275 61 q 83 -13 189 -13 q -5 7 31 -13 q -56 61 -41 28 q -76 149 -76 105 q -67 229 -76 193 q 40 409 -41 349 q 264 475 122 469 l 334 477 l 342 517 q 347 553 347 537 q 301 604 347 604 q 123 538 250 604 l 79 690 m 164 186 q 189 151 164 151 q 252 190 223 151 q 295 294 281 229 l 304 338 q 281 338 296 338 q 170 227 192 330 q 164 186 164 203 z "},"æ":{"ha":967,"x_min":-31,"x_max":954,"o":"m 407 770 q 566 723 513 770 q 732 769 639 769 q 834 751 790 769 q 903 703 878 734 q 954 543 954 638 q 943 426 954 492 l 920 319 l 572 319 q 567 260 567 286 q 652 156 567 156 q 868 219 754 156 l 831 47 q 590 -13 718 -13 q 386 77 446 -13 q 161 -13 294 -13 q -1 49 46 -13 q -31 153 -31 89 q -22 229 -31 187 q 85 409 3 349 q 309 475 167 469 l 378 477 l 387 515 q 391 553 391 536 q 346 604 391 604 q 168 538 295 604 l 124 690 q 407 770 267 770 m 733 540 q 698 607 733 607 q 610 474 646 607 l 727 474 q 733 540 733 512 m 326 338 q 254 309 283 338 q 214 227 225 280 q 209 188 209 204 q 233 151 209 151 q 297 190 268 151 q 339 294 326 229 l 349 338 q 326 338 340 338 z "},"ç":{"ha":502,"x_min":29,"x_max":604,"o":"m 180 -4 q 29 229 29 35 q 46 374 29 293 q 181 671 89 574 q 422 769 273 769 q 518 754 469 769 q 604 713 568 740 l 506 543 q 404 592 435 592 q 335 538 364 592 q 285 389 305 485 q 264 243 264 293 q 312 165 264 165 q 492 237 364 165 l 450 40 q 277 -12 362 -8 l 275 -16 q 310 -32 290 -18 q 340 -60 330 -45 q 359 -119 359 -88 q 355 -149 359 -132 q 153 -292 325 -292 q 102 -286 129 -292 q 61 -274 75 -280 l 46 -268 l 71 -153 q 156 -173 117 -173 q 201 -140 195 -173 q 187 -106 205 -122 q 148 -84 168 -91 l 127 -77 q 180 -4 168 -20 z "},"è":{"ha":625,"x_min":-27,"x_max":594,"o":"m 176 1063 l 433 1063 q 524 924 457 1017 l 551 884 l 547 867 l 392 867 q 295 944 357 892 q 174 1050 233 996 l 176 1063 m 227 -13 q 110 8 160 -13 q 31 65 60 29 q -27 251 -27 137 q -14 372 -27 308 q 22 491 0 435 q 77 599 43 547 q 152 688 110 650 q 249 747 193 725 q 365 769 305 769 q 465 755 424 769 q 530 720 506 741 q 570 667 554 698 q 594 547 594 616 q 581 426 594 494 l 557 319 l 209 319 q 204 262 204 287 q 290 156 204 156 q 508 233 363 156 l 469 47 q 227 -13 355 -13 m 370 543 q 334 607 370 607 q 245 474 281 607 l 362 474 q 370 543 370 515 z "},"é":{"ha":625,"x_min":-27,"x_max":696,"o":"m 696 1062 l 694 1050 q 537 949 630 1006 q 397 867 445 892 l 243 867 l 247 884 q 395 1016 366 988 q 441 1062 425 1044 l 696 1062 m 227 -13 q 111 8 161 -13 q 31 65 60 29 q -27 254 -27 138 q 22 491 -27 366 q 152 688 69 614 q 249 747 193 725 q 365 769 305 769 q 465 755 424 769 q 530 720 506 741 q 570 667 554 698 q 594 547 594 616 q 581 426 594 494 l 557 319 l 209 319 q 204 262 204 287 q 290 156 204 156 q 508 233 363 156 l 469 47 q 227 -13 355 -13 m 370 543 q 334 607 370 607 q 245 474 281 607 l 362 474 q 370 543 370 515 z "},"ê":{"ha":625,"x_min":-27,"x_max":665,"o":"m 315 1063 l 550 1063 q 665 884 589 981 l 661 867 l 509 867 q 408 957 467 895 q 273 867 320 892 l 119 867 l 123 884 q 224 971 167 918 q 315 1063 281 1025 m 227 -13 q 110 8 160 -13 q 31 65 60 29 q -27 251 -27 137 q -14 372 -27 308 q 22 491 0 435 q 77 599 43 547 q 152 688 110 650 q 249 747 193 725 q 365 769 305 769 q 465 755 424 769 q 530 720 506 741 q 570 667 554 698 q 594 547 594 616 q 581 426 594 494 l 557 319 l 209 319 q 204 262 204 287 q 290 156 204 156 q 508 233 363 156 l 469 47 q 227 -13 355 -13 m 370 543 q 334 607 370 607 q 245 474 281 607 l 362 474 q 370 543 370 515 z "},"ë":{"ha":625,"x_min":-26,"x_max":670,"o":"m 174 958 q 216 1029 184 1004 q 297 1054 249 1054 q 368 1028 345 1054 q 383 983 383 1009 q 380 958 383 971 q 338 890 372 916 q 257 865 305 865 q 187 890 209 865 q 172 933 172 907 q 174 958 172 945 m 461 958 q 503 1029 471 1004 q 584 1054 536 1054 q 654 1028 632 1054 q 670 983 670 1009 q 667 958 670 971 q 625 890 659 916 q 544 865 592 865 q 473 890 496 865 q 458 933 458 907 q 461 958 458 945 m 228 -13 q 111 8 161 -13 q 32 65 61 29 q -26 251 -26 137 q 23 491 -26 364 q 152 688 69 614 q 250 747 194 725 q 365 769 306 769 q 466 755 425 769 q 531 720 507 741 q 570 667 555 698 q 595 547 595 616 q 581 426 595 494 l 559 319 l 210 319 q 205 260 205 286 q 291 156 205 156 q 509 233 365 156 l 470 47 q 228 -13 355 -13 m 370 543 q 334 607 370 607 q 245 474 281 607 l 363 474 q 370 543 370 515 z "},"ì":{"ha":323,"x_min":-26,"x_max":377,"o":"m 3 1063 l 259 1063 q 351 924 283 1017 l 377 884 l 373 867 l 218 867 q 121 944 184 892 q 0 1050 59 996 l 3 1063 m 205 0 l -26 0 l 134 755 l 366 755 l 205 0 z "},"í":{"ha":323,"x_min":-26,"x_max":536,"o":"m 536 1062 l 534 1050 q 377 949 469 1006 q 237 867 284 892 l 82 867 l 86 884 q 235 1016 205 988 q 281 1062 264 1044 l 536 1062 m 205 0 l -26 0 l 134 755 l 366 755 l 205 0 z "},"î":{"ha":323,"x_min":-46,"x_max":500,"o":"m 150 1063 l 385 1063 q 500 884 423 981 l 496 867 l 344 867 q 243 957 302 895 q 108 867 155 892 l -46 867 l -42 884 q 64 975 -1 916 q 150 1063 117 1026 m 205 0 l -26 0 l 134 755 l 366 755 l 205 0 z "},"ï":{"ha":323,"x_min":-25,"x_max":505,"o":"m 9 958 q 52 1029 19 1004 q 132 1054 84 1054 q 203 1028 180 1054 q 218 983 218 1009 q 216 958 218 971 q 174 890 207 916 q 92 865 140 865 q 22 890 44 865 q 7 933 7 907 q 9 958 7 945 m 296 958 q 338 1029 306 1004 q 419 1054 371 1054 q 490 1028 467 1054 q 505 983 505 1009 q 503 958 505 971 q 460 890 494 916 q 379 865 427 865 q 309 890 331 865 q 294 933 294 907 q 296 958 294 945 m 206 0 l -25 0 l 136 755 l 367 755 l 206 0 z "},"ð":{"ha":672,"x_min":-35,"x_max":671,"o":"m 631 572 q 610 386 631 486 q 468 95 572 204 l 469 95 q 216 -13 367 -13 q 6 80 64 -13 q -35 231 -35 144 q -23 330 -35 277 q 102 582 10 486 q 331 675 193 675 q 415 654 379 675 q 368 768 401 715 l 199 670 l 142 796 l 282 874 q 197 934 243 905 l 304 1066 q 452 969 408 1006 q 536 1019 479 985 q 615 1066 594 1054 l 671 940 l 545 869 q 631 572 631 747 m 202 245 q 254 163 202 163 q 321 212 293 163 q 370 360 349 260 q 378 425 378 399 q 328 509 378 509 q 260 465 288 509 q 212 330 232 421 q 202 245 202 280 z "},"ñ":{"ha":690,"x_min":-66,"x_max":703,"o":"m 513 840 q 411 869 475 840 q 319 898 348 898 q 264 840 288 898 l 157 840 q 232 994 185 944 q 350 1044 279 1044 q 444 1015 380 1044 q 538 986 509 986 q 594 1044 570 986 l 703 1044 q 627 892 675 945 q 513 840 578 840 m 465 769 q 645 591 645 769 q 633 489 645 546 l 528 0 l 296 0 l 391 448 q 403 536 403 502 q 370 593 403 593 q 333 582 350 593 q 306 554 316 570 q 284 512 295 538 q 269 464 274 485 l 255 411 q 242 363 247 380 l 165 0 l -66 0 l 94 755 l 286 755 l 286 702 q 465 769 362 769 z "},"ò":{"ha":672,"x_min":-28,"x_max":623,"o":"m 184 1063 l 441 1063 q 532 924 465 1017 l 559 884 l 555 867 l 400 867 q 303 944 366 892 q 182 1050 241 996 l 184 1063 m 119 651 q 143 679 119 651 q 235 738 167 707 q 375 769 302 769 q 496 746 448 769 q 571 686 544 724 q 610 600 597 648 q 623 502 623 551 q 609 379 623 444 q 467 93 571 199 q 214 -13 363 -13 q 11 94 75 -13 q -28 252 -28 160 q -11 385 -28 311 q 39 528 6 460 q 119 651 71 596 m 344 592 q 275 540 304 592 q 226 393 246 488 q 206 248 206 298 q 253 163 206 163 q 374 379 328 163 q 391 509 391 459 q 344 592 391 592 z "},"ó":{"ha":672,"x_min":-27,"x_max":709,"o":"m 709 1062 l 707 1050 q 550 949 642 1006 q 410 867 457 892 l 255 867 l 259 884 q 408 1016 378 988 q 454 1062 437 1044 l 709 1062 m 119 651 q 143 679 119 651 q 235 738 167 707 q 375 769 302 769 q 496 746 448 769 q 571 686 544 724 q 610 600 597 648 q 623 502 623 551 q 609 379 623 444 q 467 92 571 199 q 214 -13 365 -13 q 12 94 75 -13 q -27 254 -27 161 q -11 386 -27 311 q 39 528 6 460 q 119 651 71 596 m 344 592 q 275 540 304 592 q 226 393 246 488 q 206 248 206 298 q 253 163 206 163 q 374 379 328 163 q 391 509 391 459 q 344 592 391 592 z "},"ô":{"ha":672,"x_min":-28,"x_max":678,"o":"m 328 1063 l 563 1063 q 678 884 602 981 l 674 867 l 522 867 q 421 957 480 895 q 286 867 333 892 l 132 867 l 136 884 q 237 971 180 918 q 328 1063 294 1025 m 119 651 q 143 679 119 651 q 235 738 167 707 q 375 769 302 769 q 496 746 448 769 q 571 686 544 724 q 610 600 597 648 q 623 502 623 551 q 609 379 623 444 q 467 93 571 199 q 214 -13 363 -13 q 11 94 75 -13 q -28 252 -28 160 q -11 385 -28 311 q 39 528 6 460 q 119 651 71 596 m 344 592 q 275 540 304 592 q 226 393 246 488 q 206 248 206 298 q 253 163 206 163 q 374 379 328 163 q 391 509 391 459 q 344 592 391 592 z "},"õ":{"ha":672,"x_min":-26,"x_max":694,"o":"m 505 840 q 403 869 467 840 q 311 898 340 898 q 256 840 280 898 l 149 840 q 224 994 177 944 q 342 1044 271 1044 q 436 1015 372 1044 q 530 986 500 986 q 586 1044 562 986 l 694 1044 q 618 892 667 945 q 505 840 570 840 m 163 692 q 185 710 163 692 q 263 748 206 728 q 384 769 319 769 q 497 746 449 769 q 572 686 545 724 q 625 499 625 613 q 611 379 625 442 q 470 93 574 199 q 216 -13 366 -13 q 14 94 77 -13 q -26 252 -26 160 q -11 377 -26 311 q 27 499 4 443 q 85 606 50 556 q 163 692 120 656 m 346 592 q 277 540 307 592 q 228 393 248 488 q 208 248 208 298 q 255 163 208 163 q 376 379 331 163 q 393 509 393 459 q 346 592 393 592 z "},"ö":{"ha":672,"x_min":-26,"x_max":683,"o":"m 187 958 q 229 1029 197 1004 q 310 1054 262 1054 q 380 1028 358 1054 q 396 983 396 1009 q 393 958 396 971 q 351 890 385 916 q 270 865 318 865 q 199 890 222 865 q 184 933 184 907 q 187 958 184 945 m 474 958 q 516 1029 484 1004 q 597 1054 549 1054 q 667 1028 645 1054 q 683 983 683 1009 q 680 958 683 971 q 638 890 671 916 q 557 865 605 865 q 487 890 509 865 q 471 933 471 907 q 474 958 471 945 m 162 692 q 184 710 162 692 q 262 748 205 728 q 384 769 319 769 q 496 746 448 769 q 571 686 545 724 q 611 599 598 648 q 624 499 624 549 q 610 379 624 443 q 468 93 572 199 q 215 -13 365 -13 q 12 94 76 -13 q -26 252 -26 160 q -12 377 -26 311 q 26 499 3 443 q 84 606 50 556 q 162 692 119 656 m 345 592 q 276 539 305 592 q 227 392 247 487 q 207 246 207 297 q 254 163 207 163 q 376 379 330 163 q 392 508 392 458 q 345 592 392 592 z "},"÷":{"ha":609,"x_min":21,"x_max":578,"o":"m 371 830 q 461 754 461 830 q 457 720 461 739 q 411 639 446 669 q 325 610 376 610 q 249 637 273 610 q 233 687 233 655 q 236 720 233 702 q 371 830 259 830 m 543 407 l 21 407 l 56 572 l 578 572 l 543 407 m 273 370 q 349 342 328 370 q 363 300 363 323 q 313 179 363 221 q 226 149 277 149 q 151 176 175 149 q 134 226 134 195 q 138 260 134 241 q 273 370 161 370 z "},"ø":{"ha":672,"x_min":-18,"x_max":680,"o":"m 616 665 q 655 494 655 598 q 642 379 655 435 q 500 93 604 199 q 247 -13 397 -13 q 141 7 189 -13 l 88 -65 l -18 -11 l 50 84 q 5 252 5 153 q 22 385 5 311 q 71 528 39 460 q 152 651 104 596 q 267 738 199 707 q 407 769 335 769 q 528 746 479 769 l 574 808 l 680 753 l 616 665 m 376 592 q 308 540 337 592 q 256 379 279 488 l 253 363 l 408 578 q 376 592 396 592 m 286 163 q 406 374 360 163 l 259 172 q 286 163 270 163 z "},"ù":{"ha":690,"x_min":-29,"x_max":683,"o":"m 187 1063 l 444 1063 q 535 924 468 1017 l 562 884 l 557 867 l 403 867 q 306 944 368 892 q 184 1050 243 996 l 187 1063 m 212 217 q 245 163 212 163 q 309 198 284 163 q 343 269 333 232 q 364 352 357 317 q 373 393 372 387 l 450 755 l 683 755 l 522 0 l 328 0 l 328 53 q 150 -13 253 -13 q -29 163 -29 -13 q -17 267 -29 209 l 87 755 l 319 755 l 224 309 q 212 217 212 252 z "},"ú":{"ha":690,"x_min":-29,"x_max":719,"o":"m 719 1062 l 717 1050 q 560 949 652 1006 q 420 867 467 892 l 265 867 l 269 884 q 418 1016 388 988 q 464 1062 448 1044 l 719 1062 m 151 -13 q -29 163 -29 -13 q -17 267 -29 210 l 87 755 l 319 755 l 224 309 q 213 220 213 254 q 245 163 213 163 q 330 235 302 163 q 373 393 353 291 l 450 755 l 683 755 l 523 0 l 330 0 l 328 53 q 151 -13 253 -13 z "},"û":{"ha":690,"x_min":-29,"x_max":686,"o":"m 336 1063 l 571 1063 q 686 884 610 981 l 682 867 l 530 867 q 429 957 488 895 q 294 867 341 892 l 140 867 l 144 884 q 245 971 188 918 q 336 1063 302 1025 m 212 217 q 245 163 212 163 q 309 198 284 163 q 343 269 333 232 q 364 352 357 317 q 373 393 372 387 l 450 755 l 683 755 l 522 0 l 328 0 l 328 53 q 150 -13 253 -13 q -29 163 -29 -13 q -17 267 -29 209 l 87 755 l 319 755 l 224 309 q 212 217 212 252 z "},"ü":{"ha":690,"x_min":-28,"x_max":690,"o":"m 194 958 q 236 1029 203 1004 q 317 1054 269 1054 q 387 1028 365 1054 q 403 983 403 1009 q 400 958 403 971 q 358 890 391 916 q 277 865 325 865 q 206 890 229 865 q 191 933 191 907 q 194 958 191 945 m 481 958 q 523 1029 490 1004 q 604 1054 555 1054 q 674 1028 652 1054 q 690 983 690 1009 q 687 958 690 971 q 645 890 678 916 q 564 865 612 865 q 494 890 515 865 q 478 933 478 907 q 481 958 478 945 m 151 -13 q -28 163 -28 -13 q -16 267 -28 209 l 88 755 l 321 755 l 226 309 q 214 219 214 254 q 246 163 214 163 q 331 235 302 163 q 374 393 353 291 l 451 755 l 684 755 l 524 0 l 330 0 l 329 53 q 151 -13 254 -13 z "},"ý":{"ha":606,"x_min":-144,"x_max":709,"o":"m 704 1062 l 701 1050 q 544 949 637 1006 q 404 867 452 892 l 250 867 l 254 884 q 405 1018 385 999 q 449 1062 425 1037 l 704 1062 m 185 -245 q 164 -264 185 -245 q 90 -302 143 -283 q -25 -321 37 -321 q -144 -303 -87 -321 l -106 -125 q -22 -144 -50 -144 q 86 -40 41 -144 l 108 4 l 49 755 l 287 755 l 299 351 l 469 755 l 709 755 l 328 -42 q 261 -158 295 -109 q 185 -245 228 -207 z "},"þ":{"ha":675,"x_min":-100,"x_max":666,"o":"m 490 769 q 588 742 548 769 q 648 663 628 715 q 666 538 666 609 q 648 379 666 467 q 524 95 610 202 q 317 -13 439 -13 q 203 26 244 -13 q 199 -9 200 -5 l 132 -321 l -100 -321 l 190 1044 l 421 1044 l 368 792 l 360 760 l 350 724 q 490 769 410 769 m 260 237 q 304 165 260 165 q 412 382 366 165 q 431 522 431 470 q 394 593 431 593 q 333 549 359 593 q 285 404 308 505 l 280 380 q 260 237 260 288 z "},"ÿ":{"ha":606,"x_min":-144,"x_max":710,"o":"m 186 958 q 228 1029 195 1004 q 309 1054 260 1054 q 379 1028 357 1054 q 395 983 395 1009 q 392 958 395 971 q 350 890 383 916 q 269 865 317 865 q 198 890 220 865 q 183 933 183 907 q 186 958 183 945 m 473 958 q 515 1029 482 1004 q 595 1054 547 1054 q 666 1028 644 1054 q 682 983 682 1009 q 679 958 682 971 q 637 890 670 916 q 555 865 604 865 q 486 890 507 865 q 470 933 470 907 q 473 958 470 945 m 187 -245 q 166 -264 187 -245 q 91 -302 144 -283 q -24 -321 38 -321 q -144 -303 -86 -321 l -106 -125 q -21 -144 -49 -144 q 87 -40 41 -144 l 109 4 l 50 755 l 288 755 l 300 351 q 469 755 328 420 l 710 755 l 328 -42 q 262 -158 296 -109 q 187 -245 229 -207 z "},"ı":{"ha":416,"x_min":14,"x_max":405,"o":"m 245 0 l 14 0 l 174 755 l 405 755 l 245 0 z "},"Œ":{"ha":967,"x_min":5,"x_max":1030,"o":"m 294 -13 q 41 121 106 -13 q 5 307 5 198 q 27 498 5 393 q 201 872 78 738 q 512 1006 323 1006 q 618 991 573 1006 l 1030 991 l 991 808 l 739 808 l 696 608 l 929 608 l 890 423 l 657 423 l 607 186 l 859 186 l 819 0 l 399 0 q 294 -13 350 -13 m 245 320 q 334 174 245 174 q 368 178 353 174 l 503 817 q 472 820 490 820 q 353 738 405 820 q 268 497 302 656 q 245 320 245 392 z "},"œ":{"ha":1025,"x_min":7,"x_max":1013,"o":"m 890 47 q 647 -13 773 -13 q 459 60 520 -13 q 249 -13 370 -13 q 242 -13 245 -13 q 47 92 109 -13 q 7 254 7 159 q 22 379 7 311 q 164 663 61 558 q 418 769 266 769 q 590 698 528 769 q 791 769 676 769 q 979 676 926 769 q 1013 535 1013 616 q 1000 426 1013 485 l 977 319 l 630 319 q 625 261 625 287 q 709 156 625 156 q 929 233 786 156 l 890 47 m 791 543 q 755 607 791 607 q 666 474 702 607 l 783 474 q 791 543 791 515 m 378 592 q 310 540 339 592 q 261 393 281 488 q 241 248 241 298 q 288 163 241 163 q 409 379 363 163 q 426 509 426 459 q 378 592 426 592 z "},"Š":{"ha":560,"x_min":-113,"x_max":697,"o":"m 697 1293 l 693 1276 q 502 1098 574 1178 l 267 1098 q 218 1185 252 1133 q 151 1276 184 1236 l 155 1293 l 309 1293 q 406 1204 346 1267 q 545 1293 487 1263 l 697 1293 m 141 172 q 201 196 177 172 q 235 262 225 220 q 237 290 236 278 q 235 315 239 302 q 227 338 231 328 q 216 359 224 348 q 201 378 208 370 q 185 396 195 387 q 167 412 175 406 q 149 427 159 418 q 46 559 74 490 q 30 640 30 598 q 39 722 30 682 q 161 929 66 852 q 379 1005 255 1005 q 609 932 504 1005 l 499 758 q 438 793 448 789 q 418 803 428 798 q 401 810 408 808 q 387 814 395 812 q 355 819 370 819 q 304 794 326 819 q 274 726 283 769 q 290 635 263 673 q 336 585 308 608 q 353 571 343 579 q 463 442 431 510 q 481 359 481 401 q 473 280 481 317 q 351 63 444 138 q 119 -13 259 -13 q -113 46 -21 -13 l -65 269 q 141 172 62 172 z "},"š":{"ha":506,"x_min":-94,"x_max":637,"o":"m 637 1064 l 633 1047 q 442 869 510 945 l 208 869 q 159 954 191 905 q 91 1047 129 1002 l 95 1064 l 249 1064 q 346 975 286 1038 q 485 1064 427 1034 l 637 1064 m 78 157 q 127 151 102 151 q 170 167 153 151 q 195 225 195 189 q 191 251 195 242 q 184 263 186 259 q 176 274 182 267 q 168 283 170 280 q 157 292 165 286 q 147 300 149 298 q 125 316 132 313 q 10 503 10 397 q 16 554 10 528 q 58 652 27 610 q 132 719 88 694 q 327 769 218 769 q 527 707 437 769 l 422 551 q 295 603 339 603 q 264 590 277 603 q 249 563 252 577 q 246 542 246 549 q 247 530 246 535 q 251 518 248 524 q 256 508 254 511 q 263 498 258 504 q 271 489 269 492 q 281 481 273 487 q 290 473 289 475 q 319 453 309 460 q 345 434 330 446 q 374 408 359 422 q 399 379 389 393 q 418 348 410 366 q 430 313 426 331 q 427 227 437 274 q 319 50 403 113 q 109 -13 235 -13 q -94 40 -18 -13 l -52 237 q 78 157 33 170 z "},"Ÿ":{"ha":638,"x_min":38,"x_max":740,"o":"m 193 1187 q 235 1258 203 1233 q 316 1283 268 1283 q 387 1257 364 1283 q 402 1212 402 1238 q 399 1187 402 1200 q 357 1119 390 1145 q 276 1094 324 1094 q 206 1119 228 1094 q 191 1162 191 1136 q 193 1187 191 1174 m 480 1187 q 522 1258 490 1233 q 603 1283 555 1283 q 673 1257 651 1283 q 689 1212 689 1238 q 686 1187 689 1200 q 644 1119 677 1145 q 563 1094 611 1094 q 492 1119 515 1094 q 477 1162 477 1136 q 480 1187 477 1174 m 380 400 l 295 0 l 60 0 l 144 393 l 38 991 l 286 991 l 324 684 q 493 991 432 879 l 740 991 l 380 400 z "},"Ž":{"ha":581,"x_min":-141,"x_max":696,"o":"m 696 1293 l 692 1276 q 500 1098 573 1178 l 266 1098 q 217 1185 251 1133 q 150 1276 183 1236 l 154 1293 l 308 1293 q 405 1204 345 1267 q 544 1293 486 1263 l 696 1293 m 609 852 l 168 186 l 478 186 l 438 0 l -141 0 l -111 140 l 332 806 l 40 806 l 79 991 l 639 991 l 609 852 z "},"ž":{"ha":482,"x_min":-117,"x_max":625,"o":"m 625 1064 l 621 1047 q 431 869 498 945 l 196 869 q 148 954 179 905 q 79 1047 117 1002 l 83 1064 l 237 1064 q 334 975 274 1038 q 473 1064 415 1034 l 625 1064 m 486 618 l 180 169 l 399 169 l 363 0 l -117 0 l -90 125 l 223 587 l 22 587 l 58 755 l 515 755 l 486 618 z "},"ƒ":{"ha":629,"x_min":-133,"x_max":745,"o":"m 564 996 q 745 957 663 996 l 656 793 q 553 822 584 822 q 491 736 509 822 l 484 701 l 627 701 l 591 533 l 448 533 q 382 229 426 429 q 319 -64 339 29 q 212 -256 292 -191 q 4 -321 132 -321 q -133 -300 -61 -321 l -95 -121 q 6 -144 -24 -144 q 54 -119 35 -144 q 85 -42 73 -94 l 207 533 l 99 533 l 122 641 l 241 692 l 252 743 q 354 935 279 873 q 564 996 428 996 z "},"ˆ":{"ha":756,"x_min":79,"x_max":625,"o":"m 275 1063 l 510 1063 q 625 884 549 981 l 621 867 l 469 867 q 368 957 427 895 q 233 867 280 892 l 79 867 l 83 884 q 184 971 127 918 q 275 1063 241 1025 z "},"ˇ":{"ha":756,"x_min":121,"x_max":667,"o":"m 667 1064 l 663 1047 q 563 959 619 1010 q 472 869 507 907 l 237 869 q 189 956 222 904 q 121 1047 155 1007 l 125 1064 l 279 1064 q 376 975 316 1038 q 515 1064 457 1034 l 667 1064 z "},"˘":{"ha":750,"x_min":182,"x_max":608,"o":"m 608 1063 q 510 899 578 956 q 347 842 443 842 q 210 899 250 842 q 182 1001 182 939 q 188 1063 182 1029 l 296 1063 q 295 1040 295 1050 q 309 994 295 1010 q 377 978 323 978 q 457 997 432 978 q 499 1063 481 1015 l 608 1063 z "},"˙":{"ha":372,"x_min":79,"x_max":294,"o":"m 207 1050 q 294 982 294 1050 q 290 953 294 968 q 248 881 280 905 q 166 856 216 856 q 79 924 79 856 q 82 953 79 937 q 207 1050 102 1050 z "},"˚":{"ha":743,"x_min":210,"x_max":538,"o":"m 279 1116 q 402 1157 331 1157 q 511 1115 474 1157 q 538 1042 538 1085 q 534 1006 538 1025 q 465 897 519 939 q 338 854 410 854 q 233 895 267 854 q 210 966 210 924 q 214 1005 210 985 q 279 1116 228 1073 m 413 1043 q 408 1049 413 1043 q 382 1055 403 1055 q 343 1042 361 1055 q 320 991 320 1023 q 328 966 320 978 q 359 955 336 955 q 399 969 381 955 q 422 1017 422 988 q 413 1043 422 1031 z "},"˛":{"ha":269,"x_min":-39,"x_max":274,"o":"m 224 -32 q 235 -38 224 -32 q 255 -60 245 -45 q 270 -91 265 -75 q 274 -120 274 -107 q 270 -149 274 -132 q 67 -292 239 -292 q 17 -286 43 -292 q -24 -274 -9 -280 l -39 -268 l -14 -153 q 71 -173 31 -173 q 117 -140 110 -173 q 101 -106 120 -122 q 62 -84 83 -91 l 41 -77 q 98 1 98 1 l 199 1 l 190 -16 q 224 -32 204 -18 z "},"˜":{"ha":732,"x_min":94,"x_max":639,"o":"m 449 840 q 348 869 411 840 q 256 898 284 898 q 201 840 224 898 l 94 840 q 169 994 121 944 q 287 1044 216 1044 q 381 1015 317 1044 q 476 986 445 986 q 530 1044 507 986 l 639 1044 q 563 892 612 945 q 449 840 514 840 z "},"˝":{"ha":766,"x_min":60,"x_max":723,"o":"m 446 1064 l 443 1052 q 351 978 424 1029 q 180 869 267 920 l 60 869 l 64 886 l 101 926 q 225 1064 183 1013 l 446 1064 m 723 1064 l 720 1052 q 615 969 697 1024 q 456 869 533 913 l 336 869 l 340 886 l 377 926 q 501 1064 461 1013 l 723 1064 z "},"ְ":{"ha":0,"x_min":-82,"x_max":83,"o":"m -20 -84 q 30 -68 1 -68 q 71 -82 60 -68 q 83 -108 83 -96 q 55 -170 83 -149 q 5 -186 35 -186 q -36 -173 -24 -186 q -47 -148 -47 -159 q -20 -84 -47 -106 m -54 -248 q -4 -232 -34 -232 q 37 -245 25 -232 q 48 -271 48 -259 q 20 -334 48 -312 q -30 -349 0 -349 q -71 -336 -59 -349 q -82 -311 -82 -323 q -54 -248 -82 -270 z "},"ֱ":{"ha":0,"x_min":-238,"x_max":273,"o":"m -210 -95 q -161 -79 -190 -79 q -120 -92 -132 -79 q -108 -118 -108 -106 q -136 -180 -108 -159 q -186 -196 -157 -196 q -227 -183 -215 -196 q -238 -158 -238 -170 q -210 -95 -238 -116 m -9 -94 q 40 -79 11 -79 q 82 -93 70 -79 q 94 -119 94 -106 q 66 -180 94 -159 q 15 -196 45 -196 q -26 -183 -15 -196 q -37 -159 -37 -170 q -9 -94 -37 -115 m 171 -95 q 221 -79 191 -79 q 262 -92 250 -79 q 273 -118 273 -106 q 245 -180 273 -159 q 196 -196 225 -196 q 155 -183 166 -196 q 143 -158 143 -170 q 171 -95 143 -116 m -142 -258 q -92 -242 -121 -242 q -52 -256 -63 -242 q -40 -281 -40 -269 q -68 -343 -40 -322 q -118 -359 -88 -359 q -158 -346 -147 -359 q -170 -321 -170 -333 q -142 -258 -170 -279 m 136 -258 q 186 -242 157 -242 q 227 -256 216 -242 q 239 -281 239 -269 q 211 -343 239 -322 q 161 -359 191 -359 q 120 -346 132 -359 q 109 -321 109 -333 q 136 -258 109 -280 z "},"ֲ":{"ha":0,"x_min":-207,"x_max":235,"o":"m 134 -94 q 144 -86 134 -94 q 183 -79 154 -79 q 224 -92 212 -79 q 235 -118 235 -106 q 208 -180 235 -159 q 158 -196 187 -196 q 117 -183 128 -196 q 106 -158 106 -170 q 108 -138 106 -146 q 134 -94 113 -110 m 42 -176 l -207 -176 l -191 -96 l 58 -96 l 42 -176 m 99 -258 q 149 -242 119 -242 q 189 -256 178 -242 q 201 -281 201 -269 q 173 -343 201 -322 q 123 -359 153 -359 q 82 -346 94 -359 q 71 -321 71 -333 q 99 -258 71 -279 z "},"ֳ":{"ha":0,"x_min":-208,"x_max":237,"o":"m 134 -95 q 184 -79 155 -79 q 225 -92 214 -79 q 237 -118 237 -106 q 209 -180 237 -159 q 159 -196 189 -196 q 118 -183 130 -196 q 106 -158 106 -170 q 134 -95 106 -116 m 41 -176 l -46 -176 l -75 -313 l -151 -313 l -121 -176 l -208 -176 l -192 -96 l 57 -96 l 41 -176 m 100 -258 q 150 -242 120 -242 q 191 -256 179 -242 q 202 -281 202 -269 q 174 -343 202 -322 q 124 -359 154 -359 q 83 -346 95 -359 q 72 -321 72 -333 q 100 -258 72 -280 z "},"ִ":{"ha":0,"x_min":-66,"x_max":66,"o":"m -38 -91 q 12 -75 -18 -75 q 54 -89 41 -75 q 66 -115 66 -103 q 38 -176 66 -155 q -13 -193 17 -193 q -54 -180 -43 -193 q -66 -155 -66 -167 q -38 -91 -66 -112 z "},"ֵ":{"ha":0,"x_min":-166,"x_max":166,"o":"m -138 -78 q -128 -70 -138 -78 q -89 -62 -118 -62 q -48 -76 -60 -62 q -37 -102 -37 -90 q -64 -164 -37 -142 q -114 -180 -84 -180 q -155 -166 -143 -180 q -166 -141 -166 -153 q -164 -121 -166 -130 q -138 -78 -159 -94 m 36 -121 q 62 -78 41 -94 q 112 -62 82 -62 q 154 -76 142 -62 q 166 -102 166 -90 q 138 -164 166 -142 q 87 -180 117 -180 q 46 -166 58 -180 q 34 -141 34 -153 q 36 -121 34 -130 z "},"ֶ":{"ha":0,"x_min":-149,"x_max":184,"o":"m -121 -94 q -111 -86 -121 -94 q -71 -79 -100 -79 q -31 -92 -42 -79 q -19 -118 -19 -106 q -47 -180 -19 -159 q -97 -196 -67 -196 q -137 -183 -126 -196 q -149 -158 -149 -170 q -146 -138 -149 -146 q -121 -94 -141 -110 m 79 -94 q 130 -79 100 -79 q 172 -93 159 -79 q 184 -119 184 -106 q 155 -180 184 -159 q 104 -196 134 -196 q 63 -183 75 -196 q 52 -158 52 -170 q 79 -94 52 -115 m -53 -258 q -3 -242 -33 -242 q 38 -256 26 -242 q 50 -281 50 -269 q 22 -343 50 -322 q -28 -359 1 -359 q -69 -346 -58 -359 q -81 -321 -81 -333 q -53 -258 -81 -280 z "},"ַ":{"ha":0,"x_min":-141,"x_max":142,"o":"m 125 -159 l -141 -159 l -125 -80 l 142 -80 l 125 -159 z "},"ָ":{"ha":0,"x_min":-123,"x_max":153,"o":"m 136 -173 l 43 -173 l 14 -310 l -61 -310 l -32 -173 l -123 -173 l -106 -94 l 153 -94 l 136 -173 z "},"ֹ":{"ha":0,"x_min":-66,"x_max":66,"o":"m -38 1058 q 12 1074 -18 1074 q 54 1060 41 1074 q 66 1034 66 1046 q 38 972 66 994 q -13 956 17 956 q -54 969 -43 956 q -66 994 -66 982 q -38 1058 -66 1037 z "},"ֺ":{"ha":0,"x_min":-66,"x_max":66,"o":"m -38 1058 q 12 1074 -18 1074 q 54 1060 41 1074 q 66 1034 66 1046 q 38 972 66 994 q -13 956 17 956 q -54 969 -43 956 q -66 994 -66 982 q -38 1058 -66 1037 z "},"ֻ":{"ha":0,"x_min":-164,"x_max":165,"o":"m -136 -102 q -87 -86 -116 -86 q -46 -100 -58 -86 q -35 -125 -35 -113 q -62 -188 -35 -167 q -112 -203 -83 -203 q -153 -190 -142 -203 q -164 -165 -164 -177 q -136 -102 -164 -123 m -39 -221 q 11 -205 -19 -205 q 52 -219 40 -205 q 63 -245 63 -233 q 36 -307 63 -286 q -14 -323 16 -323 q -55 -310 -43 -323 q -67 -285 -67 -296 q -39 -221 -67 -243 m 61 -340 q 111 -324 81 -324 q 153 -338 140 -324 q 165 -364 165 -352 q 137 -426 165 -404 q 85 -441 115 -441 q 44 -429 56 -441 q 33 -404 33 -416 q 61 -340 33 -361 z "},"ּ":{"ha":0,"x_min":-49,"x_max":50,"o":"m 9 504 q 41 494 32 504 q 50 475 50 484 q 31 430 50 444 q -9 416 13 416 q -40 426 -32 416 q -49 444 -49 435 q -47 460 -49 453 q 9 504 -37 504 z "},"ֽ":{"ha":0,"x_min":-60,"x_max":60,"o":"m 10 -345 l -60 -345 l -9 -106 l 60 -106 l 10 -345 z "},"־":{"ha":448,"x_min":91,"x_max":519,"o":"m 480 692 l 91 692 l 130 875 l 519 875 l 480 692 z "},"ׁ":{"ha":0,"x_min":-66,"x_max":66,"o":"m -38 1058 q 12 1074 -18 1074 q 54 1060 41 1074 q 66 1034 66 1046 q 38 972 66 994 q -13 956 17 956 q -54 969 -43 956 q -66 994 -66 982 q -38 1058 -66 1037 z "},"ׂ":{"ha":0,"x_min":-66,"x_max":66,"o":"m -38 1058 q 12 1074 -18 1074 q 54 1060 41 1074 q 66 1034 66 1046 q 38 972 66 994 q -13 956 17 956 q -54 969 -43 956 q -66 994 -66 982 q -38 1058 -66 1037 z "},"ׇ":{"ha":0,"x_min":-130,"x_max":163,"o":"m 149 -142 l 39 -142 l 6 -301 l -57 -301 l -24 -142 l -130 -142 l -115 -75 l 163 -75 l 149 -142 z "},"א":{"ha":725,"x_min":-41,"x_max":784,"o":"m 784 875 l 715 551 q 643 391 693 447 q 590 345 623 368 q 515 305 557 321 l 591 0 l 336 0 l 271 370 q 262 332 271 370 l 191 0 l -41 0 l 26 317 q 87 452 41 389 q 218 556 133 516 q 171 722 203 612 q 127 875 139 832 l 382 875 l 446 564 l 462 477 q 481 543 470 493 l 551 875 l 784 875 z "},"ב":{"ha":640,"x_min":-54,"x_max":590,"o":"m 131 869 q 314 888 237 888 q 433 882 391 888 q 504 862 475 875 q 551 829 533 850 q 590 715 590 787 q 572 578 590 663 l 486 170 l 574 170 l 538 0 l -54 0 l -18 170 l 252 170 l 338 579 q 347 645 347 618 q 338 688 347 673 q 260 717 321 717 q 178 712 220 717 q 116 703 137 708 l 95 699 l 131 869 z "},"ג":{"ha":562,"x_min":-74,"x_max":557,"o":"m 197 871 q 344 888 281 888 q 451 875 407 888 q 519 840 496 862 q 557 729 557 805 q 543 621 557 691 l 411 0 l 230 0 l 240 100 l 233 100 q 147 23 205 59 q 20 -13 88 -13 q -58 -3 -16 -13 l -74 0 l -16 195 q 69 180 33 180 q 189 221 145 180 q 254 361 233 263 l 309 621 q 314 661 314 644 q 267 713 314 713 q 161 700 207 713 l 197 871 z "},"ד":{"ha":614,"x_min":75,"x_max":695,"o":"m 695 875 l 663 720 q 526 550 554 684 l 409 0 l 176 0 l 294 555 q 401 705 315 651 l 75 705 l 111 875 l 695 875 z "},"ה":{"ha":720,"x_min":-33,"x_max":707,"o":"m 283 879 q 328 883 283 879 q 444 888 372 888 q 563 880 517 888 q 639 852 610 871 q 685 809 669 833 q 704 757 701 785 q 707 710 707 729 q 690 578 707 658 l 567 0 l 333 0 l 456 579 q 463 643 463 614 q 452 687 463 671 q 366 717 432 717 q 256 710 319 717 q 153 695 193 703 l 113 688 l 149 857 q 283 879 195 869 m 201 0 l -33 0 l 88 568 l 321 568 l 201 0 z "},"ו":{"ha":356,"x_min":-31,"x_max":387,"o":"m 201 0 l -31 0 l 155 875 l 387 875 l 201 0 z "},"ז":{"ha":403,"x_min":-22,"x_max":490,"o":"m 490 875 l 457 718 q 394 630 438 694 q 324 486 351 566 q 274 297 297 406 l 211 0 l -22 0 l 41 297 q 89 450 58 378 q 155 574 119 523 q 260 705 216 663 l 104 705 l 140 875 l 490 875 z "},"ח":{"ha":720,"x_min":-33,"x_max":707,"o":"m 151 863 q 275 880 191 871 q 438 888 360 888 q 563 880 517 888 q 639 852 610 871 q 685 809 669 833 q 704 757 701 785 q 707 710 707 729 q 690 578 707 658 l 567 0 l 333 0 l 456 579 q 465 648 465 622 q 458 688 465 674 q 390 717 444 717 q 352 713 386 717 l 201 0 l -33 0 l 151 863 z "},"ט":{"ha":734,"x_min":39,"x_max":721,"o":"m 445 875 q 534 888 491 888 q 614 873 578 888 q 672 832 651 857 q 705 769 694 808 q 721 679 721 719 q 717 600 721 639 q 692 446 711 536 q 646 289 673 357 q 590 176 619 221 q 525 95 560 130 q 457 40 489 60 q 390 8 425 20 q 329 -9 355 -5 q 279 -13 303 -13 q 230 -9 254 -13 q 177 8 206 -5 q 123 40 147 20 q 79 95 99 60 q 39 270 39 162 q 58 438 39 348 l 151 875 l 388 875 l 295 438 q 270 251 270 319 q 315 159 270 159 q 454 438 395 159 q 490 655 490 610 q 483 693 490 677 q 466 712 477 708 q 437 717 454 717 l 410 711 l 445 875 z "},"י":{"ha":356,"x_min":31,"x_max":388,"o":"m 302 471 l 146 287 l 31 287 l 155 875 l 388 875 l 302 471 z "},"ך":{"ha":576,"x_min":77,"x_max":550,"o":"m 315 888 q 517 797 465 888 q 550 656 550 741 q 530 497 550 590 l 356 -324 l 123 -324 l 298 497 q 311 588 311 556 q 306 646 311 620 q 279 690 300 673 q 221 707 258 707 q 95 694 152 707 l 77 691 l 114 865 q 315 888 220 888 z "},"כ":{"ha":568,"x_min":-61,"x_max":564,"o":"m 319 615 q 237 709 319 709 q 102 697 161 709 l 84 694 l 121 867 q 305 888 216 888 q 444 870 394 888 q 521 823 494 852 q 564 677 564 772 q 546 538 564 624 l 508 358 q 353 66 467 166 q 255 9 313 31 q 130 -13 198 -13 q -61 11 14 -13 l -23 190 q 133 166 52 166 q 237 243 203 166 q 271 358 254 281 l 309 538 q 319 615 319 582 z "},"ל":{"ha":575,"x_min":65,"x_max":657,"o":"m 347 875 l 657 875 l 629 743 l 431 336 l 292 0 l 65 0 l 205 342 l 382 705 l 77 705 l 151 1050 l 385 1050 l 347 875 z "},"ם":{"ha":720,"x_min":-33,"x_max":707,"o":"m 151 865 q 279 880 186 872 q 444 888 372 888 q 563 880 517 888 q 639 852 610 871 q 685 809 669 833 q 704 757 701 785 q 707 710 707 729 q 690 578 707 658 l 567 0 l -33 0 l 151 865 m 456 579 q 466 650 466 625 q 460 688 466 675 q 399 717 448 717 q 352 711 390 717 l 237 170 l 369 170 l 456 579 z "},"מ":{"ha":772,"x_min":-57,"x_max":753,"o":"m 138 745 q 125 875 138 805 l 340 875 q 347 823 347 849 q 346 787 347 798 l 349 787 q 573 888 476 888 q 665 871 628 888 q 722 823 703 853 q 753 690 753 777 q 734 541 753 629 l 619 0 l 269 0 l 305 170 l 422 170 l 501 541 q 519 653 519 606 q 519 663 519 658 q 475 712 517 712 q 380 658 430 712 q 357 628 369 646 l 176 0 l -57 0 l 111 564 q 138 745 138 654 z "},"ן":{"ha":345,"x_min":-106,"x_max":342,"o":"m 339 875 q 342 822 342 850 q 337 717 342 793 q 313 554 332 642 l 127 -324 l -106 -324 l 80 554 q 109 809 109 688 q 109 838 109 826 l 105 875 l 339 875 z "},"נ":{"ha":510,"x_min":-72,"x_max":509,"o":"m 152 873 q 290 888 238 888 q 378 882 341 888 q 440 863 415 875 q 479 832 465 852 q 502 793 494 813 q 509 743 509 772 q 493 621 509 692 l 416 255 q 379 130 402 193 q 340 33 356 66 l 323 0 l -72 0 l -36 170 l 155 170 q 193 307 174 216 l 260 621 q 263 654 263 637 q 205 713 263 713 q 130 701 178 713 l 115 698 l 152 873 z "},"ס":{"ha":713,"x_min":24,"x_max":689,"o":"m 452 888 q 544 872 505 888 q 607 836 583 856 q 650 781 630 817 q 689 610 689 715 q 670 444 689 531 q 625 289 652 357 q 569 175 599 221 q 505 95 540 130 q 438 40 470 60 q 371 7 406 20 q 261 -14 314 -14 q 157 8 206 -14 q 104 41 127 20 q 60 96 80 61 q 24 264 24 162 q 96 583 24 439 q 178 704 136 660 l 108 699 l 143 866 q 452 888 289 888 m 463 630 q 416 717 463 717 l 387 715 q 324 609 348 672 q 276 432 300 545 q 252 250 252 318 q 297 158 252 158 q 435 438 376 158 q 463 630 463 562 z "},"ע":{"ha":706,"x_min":-68,"x_max":763,"o":"m 763 875 l 658 471 q 617 344 640 399 q 556 230 595 288 q 465 129 517 172 q 335 51 413 86 q 157 -3 256 16 l -68 -45 l -31 130 l 111 155 l 119 875 l 351 875 l 340 475 l 308 248 q 408 399 376 295 q 420 440 412 413 q 430 475 427 467 l 537 875 l 763 875 z "},"ף":{"ha":682,"x_min":32,"x_max":644,"o":"m 32 468 q 32 490 32 471 q 40 557 32 510 q 121 737 62 661 q 254 851 180 814 q 408 888 328 888 q 499 872 460 888 q 562 836 538 856 q 606 781 585 817 q 644 610 644 715 q 625 438 644 531 l 463 -324 l 230 -324 l 392 438 q 417 625 417 556 q 371 717 417 717 q 329 699 349 717 q 298 656 310 682 q 269 576 275 607 q 263 523 263 546 q 305 450 263 457 l 324 446 l 260 281 l 229 284 q 124 315 173 290 q 47 399 75 340 q 32 468 33 429 z "},"פ":{"ha":696,"x_min":18,"x_max":673,"o":"m 446 630 q 400 717 446 717 q 366 704 382 717 q 338 675 349 692 q 317 637 327 658 q 292 522 292 579 q 334 450 292 457 l 353 446 l 288 281 l 257 284 q 153 315 201 290 q 76 399 104 340 q 61 470 61 430 q 69 557 61 510 q 124 699 85 635 q 212 804 162 763 q 320 866 262 844 q 436 888 378 888 q 528 872 488 888 q 590 836 567 856 q 634 781 614 817 q 673 610 673 715 q 654 444 673 531 q 609 289 635 357 q 553 175 583 221 q 488 94 524 130 q 421 39 453 59 q 354 7 389 19 q 238 -14 297 -14 q 123 -8 180 -14 q 42 4 66 -2 l 18 10 l 54 178 q 281 158 161 158 q 354 225 321 158 q 419 438 388 293 q 446 630 446 562 z "},"ץ":{"ha":673,"x_min":-31,"x_max":726,"o":"m 726 875 l 660 562 q 534 347 629 420 q 446 302 498 320 q 331 283 394 285 l 202 -324 l -31 -324 l 121 390 l 96 875 l 349 875 l 342 449 l 340 427 q 392 468 370 430 q 427 562 414 505 l 493 875 l 726 875 z "},"צ":{"ha":689,"x_min":-64,"x_max":768,"o":"m 350 875 l 414 530 q 475 662 456 596 l 537 874 l 768 874 l 716 702 q 644 537 694 629 q 568 431 614 485 q 467 334 522 376 l 566 119 l 541 0 l -64 0 l -28 170 l 229 170 l 311 161 q 265 259 281 224 q 241 311 248 294 l 109 875 l 350 875 z "},"ק":{"ha":691,"x_min":-100,"x_max":771,"o":"m 745 750 l 587 346 q 488 24 515 151 l 483 0 l 251 0 l 256 24 q 349 347 288 172 l 484 705 l 119 705 l 155 875 l 771 875 l 745 750 m 132 -325 l -100 -325 l 82 534 l 315 534 l 132 -325 z "},"ר":{"ha":585,"x_min":80,"x_max":573,"o":"m 116 879 q 305 891 236 891 q 416 884 374 891 q 487 865 458 878 q 534 832 516 852 q 573 714 573 790 q 556 581 573 665 l 432 0 l 199 0 l 323 582 q 330 642 330 614 q 320 686 330 669 q 242 720 302 720 q 104 713 179 720 l 80 711 l 116 879 z "},"ש":{"ha":869,"x_min":-21,"x_max":939,"o":"m 226 0 l -21 0 l 109 875 l 340 875 l 268 435 q 291 450 285 446 q 308 474 296 454 q 329 526 319 493 l 417 875 l 642 875 l 553 526 q 430 345 515 401 q 248 289 361 300 l 233 170 l 262 170 q 388 192 330 170 q 486 250 446 213 q 593 426 565 322 l 715 875 l 939 875 l 818 412 q 772 293 802 349 q 711 201 741 237 q 634 126 682 164 q 531 61 587 88 q 396 17 475 34 q 226 0 317 0 z "},"ת":{"ha":748,"x_min":-71,"x_max":736,"o":"m 190 861 q 205 864 190 861 q 310 878 220 867 q 473 888 399 888 q 593 880 547 888 q 669 852 640 871 q 715 809 699 833 q 734 757 731 785 q 736 710 736 729 q 720 578 736 658 l 597 0 l 363 0 l 486 579 q 495 648 495 622 q 488 688 495 674 q 419 717 474 717 l 411 717 l 313 254 q 273 115 291 151 q 231 50 249 65 q 194 22 213 35 q 151 3 174 9 q 33 -13 98 -13 q -17 -6 9 -13 q -57 7 -43 0 l -71 14 l -37 174 q 19 163 6 163 q 41 169 32 163 q 56 182 50 175 q 66 204 61 189 q 79 254 72 222 l 172 694 l 106 682 l 142 850 q 190 861 159 854 z "},"׳":{"ha":319,"x_min":50,"x_max":402,"o":"m 397 875 l 402 859 q 319 692 366 782 l 221 516 l 50 516 q 142 746 118 675 q 176 846 167 817 l 186 875 l 397 875 z "},"״":{"ha":602,"x_min":35,"x_max":669,"o":"m 382 875 l 387 859 q 304 692 351 782 l 206 516 l 35 516 q 127 746 103 675 q 161 846 152 817 l 171 875 l 382 875 m 665 875 l 669 859 q 587 692 633 782 l 488 516 l 317 516 q 410 746 385 675 q 444 846 434 817 l 453 875 l 665 875 z "},"–":{"ha":646,"x_min":-3,"x_max":640,"o":"m 603 291 l -3 291 l 33 463 l 640 463 l 603 291 z "},"—":{"ha":1057,"x_min":0,"x_max":1040,"o":"m 1004 291 l 0 291 l 37 463 l 1040 463 l 1004 291 z "},"‘":{"ha":306,"x_min":-27,"x_max":326,"o":"m 154 991 l 326 991 q 233 762 257 832 q 199 662 208 691 l 189 633 l -22 633 l -27 649 q 56 815 9 726 l 154 991 z "},"’":{"ha":306,"x_min":-20,"x_max":333,"o":"m 328 991 l 333 975 q 250 809 296 899 l 152 633 l -20 633 q 73 863 49 792 q 107 962 98 933 l 117 991 l 328 991 z "},"‚":{"ha":361,"x_min":-42,"x_max":340,"o":"m 328 186 l 340 156 q 147 -174 277 22 l -42 -174 q 107 186 51 31 l 328 186 z "},"“":{"ha":588,"x_min":-27,"x_max":608,"o":"m 154 991 l 326 991 q 233 762 257 832 q 199 662 208 691 l 189 633 l -22 633 l -27 649 q 56 815 9 726 l 154 991 m 436 991 l 608 991 q 515 762 539 832 q 481 662 490 691 l 471 633 l 260 633 l 255 649 q 338 815 292 726 l 436 991 z "},"”":{"ha":588,"x_min":-20,"x_max":615,"o":"m 328 991 l 333 975 q 250 809 296 899 l 152 633 l -20 633 q 73 863 49 792 q 107 962 98 933 l 117 991 l 328 991 m 610 991 l 615 975 q 532 809 578 899 l 434 633 l 262 633 q 355 863 331 792 q 389 962 380 933 l 399 991 l 610 991 z "},"„":{"ha":656,"x_min":-8,"x_max":612,"o":"m 311 161 l 317 146 q 130 -179 254 9 l -8 -179 q 132 161 77 9 l 311 161 m 606 161 l 612 146 q 424 -179 548 9 l 286 -179 q 427 161 372 9 l 606 161 z "},"†":{"ha":681,"x_min":93,"x_max":667,"o":"m 439 772 l 667 793 l 634 637 l 414 659 l 312 0 l 132 0 l 309 659 l 93 637 l 126 793 l 333 772 l 355 1055 l 536 1055 l 439 772 z "},"‡":{"ha":681,"x_min":0,"x_max":681,"o":"m 451 800 l 681 821 l 648 665 l 427 686 l 427 533 l 359 370 l 589 390 l 556 235 l 336 256 l 319 0 l 138 0 l 230 256 l 0 235 l 33 390 l 254 370 l 257 533 l 321 686 l 92 665 l 125 821 l 345 800 l 362 1055 l 543 1055 l 451 800 z "},"•":{"ha":495,"x_min":25,"x_max":462,"o":"m 33 507 q 122 667 55 611 q 290 724 189 724 q 433 667 391 724 q 462 572 462 629 q 454 507 462 542 q 365 347 433 405 q 197 290 297 290 q 54 347 96 290 q 25 443 25 385 q 33 507 25 472 z "},"…":{"ha":1112,"x_min":64,"x_max":1047,"o":"m 115 175 q 132 190 115 175 q 204 204 149 204 q 282 175 259 204 q 297 126 297 156 q 293 93 297 111 q 246 11 282 40 q 156 -18 210 -18 q 80 11 102 -18 q 64 60 64 31 q 68 93 64 75 q 115 175 80 146 m 490 175 q 507 190 490 175 q 579 204 524 204 q 656 175 634 204 q 672 126 672 156 q 668 93 672 111 q 621 11 657 40 q 531 -18 585 -18 q 454 11 477 -18 q 439 60 439 31 q 444 93 439 75 q 490 175 455 146 m 865 175 q 882 190 865 175 q 954 204 899 204 q 1032 175 1009 204 q 1047 126 1047 156 q 1043 93 1047 111 q 996 11 1032 40 q 906 -18 960 -18 q 830 11 852 -18 q 814 60 814 31 q 819 93 814 75 q 865 175 830 146 z "},"‰":{"ha":1545,"x_min":42,"x_max":1503,"o":"m 57 692 q 163 926 90 846 q 343 1006 237 1006 q 490 926 450 1006 q 511 822 511 882 q 496 692 511 762 q 390 457 463 538 q 209 377 316 377 q 63 457 102 377 q 42 561 42 501 q 57 692 42 621 m 300 0 l 146 0 l 765 991 l 921 991 l 300 0 m 241 526 q 261 536 252 526 q 311 692 283 562 q 329 841 336 813 q 322 854 326 851 q 310 857 318 857 q 292 847 301 857 q 242 692 270 821 q 222 562 222 597 q 241 526 222 526 m 570 302 q 677 537 604 456 q 857 617 750 617 q 1004 537 964 617 q 1025 433 1025 493 q 1010 302 1025 372 q 903 68 977 149 q 723 -12 829 -12 q 576 68 616 -12 q 555 172 555 112 q 570 302 555 232 m 1048 302 q 1155 537 1082 456 q 1335 617 1228 617 q 1481 537 1442 617 q 1503 433 1503 493 q 1488 302 1503 372 q 1381 68 1455 149 q 1201 -12 1308 -12 q 1055 68 1094 -12 q 1034 172 1034 112 q 1048 302 1034 232 m 755 137 q 774 147 766 137 q 825 302 797 173 q 842 452 850 424 q 836 465 840 462 q 823 468 831 468 q 806 458 814 468 q 755 302 783 432 q 736 172 736 208 q 755 137 736 137 m 1303 468 q 1284 458 1293 468 q 1234 302 1261 432 q 1214 172 1214 208 q 1233 137 1214 137 q 1253 147 1244 137 q 1303 302 1275 173 q 1322 433 1322 397 q 1303 468 1322 468 z "},"‹":{"ha":429,"x_min":14,"x_max":459,"o":"m 262 381 l 360 149 l 167 52 l 14 372 l 18 389 l 307 710 l 459 614 l 262 381 z "},"›":{"ha":429,"x_min":-36,"x_max":410,"o":"m 410 389 l 406 372 l 116 52 l -36 149 l 160 381 q 63 614 155 395 l 256 710 l 410 389 z "},"⁄":{"ha":123,"x_min":-393,"x_max":513,"o":"m -201 0 l -393 0 l 321 991 l 513 991 l -201 0 z "},"₪":{"ha":1077,"x_min":-27,"x_max":1102,"o":"m 490 878 q 734 789 675 878 q 762 729 754 760 q 770 656 770 698 q 750 493 770 588 l 713 321 l 536 321 l 573 493 q 586 590 586 551 q 574 651 586 629 q 450 696 548 696 l 353 696 l 205 0 l -27 0 l 160 878 l 490 878 m 494 0 l 257 0 l 376 560 l 541 560 l 461 182 l 532 182 q 675 225 626 182 q 707 256 693 241 q 732 297 720 272 q 753 343 745 321 q 772 398 762 366 q 802 526 784 444 l 878 878 l 1102 878 l 1027 526 q 959 292 995 372 q 870 146 918 198 q 804 88 843 118 q 722 41 766 58 q 494 0 618 0 z "},"€":{"ha":629,"x_min":-41,"x_max":736,"o":"m 532 1006 q 642 993 595 1006 q 736 949 688 980 l 627 777 q 501 821 543 821 q 352 652 418 821 l 544 652 l 514 512 l 311 512 l 300 460 l 474 460 l 444 321 l 283 321 q 373 173 285 173 q 570 245 433 173 l 528 45 q 314 -13 425 -13 q 107 73 176 -13 q 46 290 46 150 q 47 321 46 304 l -41 321 l -12 460 l 66 460 l 77 512 l -1 512 l 29 652 l 116 652 q 288 916 180 825 q 532 1006 395 1006 z "},"™":{"ha":913,"x_min":6,"x_max":909,"o":"m 604 991 l 604 783 l 698 991 l 909 991 l 802 488 l 644 488 l 671 615 l 614 488 l 465 488 l 463 608 l 437 488 l 281 488 l 362 869 l 277 869 l 196 488 l 37 488 l 118 869 l 6 869 l 32 991 l 604 991 z "},"ﬁ":{"ha":738,"x_min":-40,"x_max":786,"o":"m 684 1039 q 766 1010 740 1039 q 786 958 786 989 q 783 931 786 945 q 732 852 772 881 q 636 823 692 823 q 553 852 581 823 q 533 904 533 872 q 540 943 533 920 l 486 846 q 406 876 431 876 q 360 795 378 876 l 352 755 l 472 755 l 437 589 l 317 589 l 191 0 l -40 0 l 85 589 l 1 589 l 24 694 l 119 747 l 130 798 q 228 989 157 928 q 425 1051 299 1051 q 578 1012 506 1051 l 567 993 q 684 1039 609 1039 m 507 755 l 738 755 l 577 0 l 346 0 l 507 755 z "},"ﬂ":{"ha":734,"x_min":-40,"x_max":798,"o":"m 406 876 q 360 795 378 876 l 352 755 l 472 755 l 437 589 l 317 589 l 191 0 l -40 0 l 85 589 l 1 589 l 24 694 l 119 747 l 130 798 q 228 989 157 928 q 425 1051 299 1051 q 562 1021 496 1051 l 566 1044 l 798 1044 l 576 0 l 345 0 l 548 959 l 486 846 q 406 876 431 876 z "},"שׁ":{"ha":869,"x_min":-21,"x_max":975,"o":"m 871 1058 q 921 1074 892 1074 q 963 1060 951 1074 q 975 1034 975 1046 q 947 972 975 994 q 897 956 926 956 q 855 969 867 956 q 844 994 844 982 q 871 1058 844 1037 m 226 0 l -21 0 l 109 875 l 340 875 l 268 435 q 291 450 285 446 q 308 474 296 454 q 329 526 319 493 l 417 875 l 642 875 l 553 526 q 430 345 515 401 q 248 289 361 300 l 233 170 l 262 170 q 388 192 330 170 q 486 250 446 213 q 593 426 565 322 l 715 875 l 939 875 l 818 412 q 772 293 802 349 q 711 201 741 237 q 634 126 682 164 q 531 61 587 88 q 396 17 475 34 q 226 0 317 0 z "},"שׂ":{"ha":869,"x_min":-21,"x_max":939,"o":"m 153 1058 q 202 1074 173 1074 q 244 1060 232 1074 q 256 1034 256 1046 q 229 972 256 994 q 178 956 208 956 q 136 969 148 956 q 125 994 125 982 q 153 1058 125 1037 m 226 0 l -21 0 l 109 875 l 340 875 l 268 435 q 291 450 285 446 q 308 474 296 454 q 329 526 319 493 l 417 875 l 642 875 l 553 526 q 430 345 515 401 q 248 289 361 300 l 233 170 l 262 170 q 388 192 330 170 q 486 250 446 213 q 593 426 565 322 l 715 875 l 939 875 l 818 412 q 772 293 802 349 q 711 201 741 237 q 634 126 682 164 q 531 61 587 88 q 396 17 475 34 q 226 0 317 0 z "},"שּׁ":{"ha":869,"x_min":-21,"x_max":975,"o":"m 871 1058 q 921 1074 892 1074 q 963 1060 951 1074 q 975 1034 975 1046 q 947 972 975 994 q 897 956 926 956 q 855 969 867 956 q 844 994 844 982 q 871 1058 844 1037 m 226 0 l -21 0 l 109 875 l 340 875 l 268 435 q 291 450 285 446 q 308 474 296 454 q 329 526 319 493 l 417 875 l 642 875 l 553 526 q 430 345 515 401 q 248 289 361 300 l 233 170 l 262 170 q 388 192 330 170 q 486 250 446 213 q 593 426 565 322 l 715 875 l 939 875 l 818 412 q 772 293 802 349 q 711 201 741 237 q 634 126 682 164 q 531 61 587 88 q 396 17 475 34 q 226 0 317 0 m 406 304 q 437 294 429 304 q 446 275 446 283 q 428 230 446 244 q 387 216 410 216 q 356 225 365 216 q 348 244 348 235 q 349 260 348 253 q 406 304 359 304 z "},"שּׂ":{"ha":869,"x_min":-21,"x_max":939,"o":"m 153 1058 q 202 1074 173 1074 q 244 1060 232 1074 q 256 1034 256 1046 q 229 972 256 994 q 178 956 208 956 q 136 969 148 956 q 125 994 125 982 q 153 1058 125 1037 m 226 0 l -21 0 l 109 875 l 340 875 l 268 435 q 291 450 285 446 q 308 474 296 454 q 329 526 319 493 l 417 875 l 642 875 l 553 526 q 430 345 515 401 q 248 289 361 300 l 233 170 l 262 170 q 388 192 330 170 q 486 250 446 213 q 593 426 565 322 l 715 875 l 939 875 l 818 412 q 772 293 802 349 q 711 201 741 237 q 634 126 682 164 q 531 61 587 88 q 396 17 475 34 q 226 0 317 0 m 406 304 q 437 294 429 304 q 446 275 446 283 q 428 230 446 244 q 387 216 410 216 q 356 225 365 216 q 348 244 348 235 q 349 260 348 253 q 406 304 359 304 z "},"אַ":{"ha":725,"x_min":-41,"x_max":784,"o":"m 784 875 l 715 551 q 643 391 693 447 q 590 345 623 368 q 515 305 557 321 l 591 0 l 336 0 l 271 370 q 262 332 271 370 l 191 0 l -41 0 l 26 317 q 87 452 41 389 q 218 556 133 516 q 171 722 203 612 q 127 875 139 832 l 382 875 l 446 564 l 462 477 q 481 543 470 493 l 551 875 l 784 875 m 354 -233 l 87 -233 l 104 -155 l 370 -155 l 354 -233 z "},"אָ":{"ha":725,"x_min":-41,"x_max":784,"o":"m 784 875 l 715 551 q 643 391 693 447 q 590 345 623 368 q 515 305 557 321 l 591 0 l 336 0 l 271 370 q 262 332 271 370 l 191 0 l -41 0 l 26 317 q 87 452 41 389 q 218 556 133 516 q 171 722 203 612 q 127 875 139 832 l 382 875 l 446 564 l 462 477 q 481 543 470 493 l 551 875 l 784 875 m 347 -248 l 254 -248 l 225 -385 l 150 -385 l 179 -248 l 87 -248 l 104 -168 l 363 -168 l 347 -248 z "},"אּ":{"ha":725,"x_min":-41,"x_max":784,"o":"m 784 875 l 715 551 q 643 391 693 447 q 590 345 623 368 q 515 305 557 321 l 591 0 l 336 0 l 271 370 q 262 332 271 370 l 191 0 l -41 0 l 26 317 q 87 452 41 389 q 218 556 133 516 q 171 722 203 612 q 127 875 139 832 l 382 875 l 446 564 l 462 477 q 481 543 470 493 l 551 875 l 784 875 m 272 111 q 303 100 294 111 q 312 81 312 90 q 294 37 312 51 q 253 22 275 22 q 222 32 231 22 q 214 51 214 42 q 215 66 214 60 q 272 111 225 111 z "},"בּ":{"ha":640,"x_min":-54,"x_max":590,"o":"m 131 869 q 314 888 237 888 q 433 882 391 888 q 504 862 475 875 q 551 829 533 850 q 590 715 590 787 q 572 578 590 663 l 486 170 l 574 170 l 538 0 l -54 0 l -18 170 l 252 170 l 338 579 q 347 645 347 618 q 338 688 347 673 q 260 717 321 717 q 178 712 220 717 q 116 703 137 708 l 95 699 l 131 869 m 186 490 q 218 479 209 490 q 227 460 227 469 q 208 416 227 430 q 168 401 190 401 q 137 411 145 401 q 128 430 128 421 q 130 446 128 439 q 186 490 140 490 z "},"גּ":{"ha":562,"x_min":-74,"x_max":557,"o":"m 197 871 q 344 888 281 888 q 451 875 407 888 q 519 840 496 862 q 557 729 557 805 q 543 621 557 691 l 411 0 l 230 0 l 240 100 l 233 100 q 147 23 205 59 q 20 -13 88 -13 q -58 -3 -16 -13 l -74 0 l -16 195 q 69 180 33 180 q 189 221 145 180 q 254 361 233 263 l 309 621 q 314 661 314 644 q 267 713 314 713 q 161 700 207 713 l 197 871 m 156 490 q 187 479 178 490 q 196 460 196 469 q 178 416 196 430 q 137 401 159 401 q 106 411 115 401 q 98 430 98 421 q 99 446 98 439 q 156 490 109 490 z "},"דּ":{"ha":614,"x_min":75,"x_max":695,"o":"m 695 875 l 663 720 q 526 550 554 684 l 409 0 l 176 0 l 294 555 q 401 705 315 651 l 75 705 l 111 875 l 695 875 m 152 490 q 183 479 174 490 q 192 460 192 469 q 174 416 192 430 q 133 401 155 401 q 102 411 111 401 q 94 430 94 421 q 95 446 94 439 q 152 490 105 490 z "},"הּ":{"ha":720,"x_min":-33,"x_max":707,"o":"m 283 879 q 328 883 283 879 q 444 888 372 888 q 563 880 517 888 q 639 852 610 871 q 685 809 669 833 q 704 757 701 785 q 707 710 707 729 q 690 578 707 658 l 567 0 l 333 0 l 456 579 q 463 643 463 614 q 452 687 463 671 q 366 717 432 717 q 256 710 319 717 q 153 695 193 703 l 113 688 l 149 857 q 283 879 195 869 m -33 0 l 88 568 l 321 568 l 201 0 l -33 0 m 370 490 q 401 479 393 490 q 410 460 410 469 q 392 416 410 430 q 351 401 374 401 q 320 411 329 401 q 312 430 312 421 q 313 446 312 439 q 370 490 323 490 z "},"וּ":{"ha":356,"x_min":-33,"x_max":387,"o":"m -31 0 l 155 875 l 387 875 l 201 0 l -31 0 m 9 479 q 31 469 24 479 q 37 452 37 460 q 35 432 37 444 q 22 410 33 420 q -5 399 11 399 q -26 408 -20 399 q -33 425 -33 417 q -31 439 -33 433 q 9 479 -24 479 z "},"זּ":{"ha":403,"x_min":-39,"x_max":490,"o":"m 490 875 l 457 718 q 394 630 438 694 q 324 486 351 566 q 274 297 297 406 l 211 0 l -22 0 l 41 297 q 89 450 58 378 q 155 574 119 523 q 260 705 216 663 l 104 705 l 140 875 l 490 875 m -7 401 q -39 434 -39 401 q -24 475 -39 461 q 8 490 -10 490 q 33 479 26 490 q 40 460 40 469 q 25 415 40 429 q -7 401 11 401 z "},"טּ":{"ha":734,"x_min":39,"x_max":721,"o":"m 445 875 q 534 888 491 888 q 614 873 578 888 q 672 832 651 857 q 705 769 694 808 q 721 679 721 719 q 717 600 721 639 q 692 446 711 536 q 646 289 673 357 q 590 176 619 221 q 525 95 560 130 q 457 40 489 60 q 390 8 425 20 q 329 -9 355 -5 q 279 -13 303 -13 q 230 -9 254 -13 q 177 8 206 -5 q 123 40 147 20 q 79 95 99 60 q 39 270 39 162 q 58 438 39 348 l 151 875 l 388 875 l 295 438 q 270 251 270 319 q 315 159 270 159 q 454 438 395 159 q 490 655 490 610 q 483 693 490 677 q 466 712 477 708 q 437 717 454 717 l 410 711 l 445 875 m 378 490 q 410 479 401 490 q 418 460 418 469 q 400 416 418 430 q 359 401 382 401 q 329 411 337 401 q 320 430 320 421 q 321 446 320 439 q 378 490 332 490 z "},"יּ":{"ha":356,"x_min":1,"x_max":388,"o":"m 146 287 l 31 287 l 155 875 l 388 875 l 302 471 l 146 287 m 42 620 q 64 610 58 620 q 70 593 70 601 q 68 573 70 585 q 55 551 66 562 q 28 541 44 541 q 7 549 13 541 q 1 566 1 558 q 2 580 1 574 q 42 620 9 620 z "},"ךּ":{"ha":576,"x_min":48,"x_max":550,"o":"m 315 888 q 517 797 465 888 q 550 656 550 741 q 530 497 550 590 l 356 -324 l 123 -324 l 298 497 q 311 588 311 556 q 306 646 311 620 q 279 690 300 673 q 221 707 258 707 q 95 694 152 707 l 77 691 l 114 865 q 315 888 220 888 m 106 490 q 138 479 129 490 q 146 460 146 469 q 128 416 146 430 q 87 401 110 401 q 57 411 65 401 q 48 430 48 421 q 50 446 48 439 q 106 490 60 490 z "},"כּ":{"ha":568,"x_min":-61,"x_max":564,"o":"m 319 615 q 237 709 319 709 q 102 697 161 709 l 84 694 l 121 867 q 305 888 216 888 q 444 870 394 888 q 521 823 494 852 q 564 677 564 772 q 546 538 564 624 l 508 358 q 353 66 467 166 q 255 9 313 31 q 130 -13 198 -13 q -61 11 14 -13 l -23 190 q 133 166 52 166 q 237 243 203 166 q 271 358 254 281 l 309 538 q 319 615 319 582 m 161 490 q 192 479 183 490 q 201 460 201 469 q 182 416 201 430 q 142 401 164 401 q 111 411 119 401 q 102 430 102 421 q 104 446 102 439 q 161 490 114 490 z "},"לּ":{"ha":575,"x_min":65,"x_max":657,"o":"m 657 875 l 629 743 l 431 336 l 292 0 l 65 0 l 205 342 l 382 705 l 77 705 l 151 1050 l 385 1050 l 347 875 l 657 875 m 126 490 q 157 479 149 490 q 166 460 166 469 q 148 416 166 430 q 107 401 130 401 q 76 411 85 401 q 68 430 68 421 q 69 446 68 439 q 126 490 79 490 z "},"מּ":{"ha":772,"x_min":-57,"x_max":753,"o":"m 138 745 q 125 875 138 805 l 340 875 q 347 823 347 849 q 346 787 347 798 l 349 787 q 573 888 476 888 q 665 871 628 888 q 722 823 703 853 q 753 690 753 777 q 734 541 753 629 l 619 0 l 269 0 l 305 170 l 422 170 l 501 541 q 519 653 519 606 q 519 663 519 658 q 475 712 517 712 q 380 658 430 712 q 357 628 369 646 l 176 0 l -57 0 l 111 564 q 138 745 138 654 m 398 490 q 429 479 420 490 q 438 460 438 469 q 420 416 438 430 q 379 401 401 401 q 348 411 357 401 q 340 430 340 421 q 341 446 340 439 q 398 490 351 490 z "},"נּ":{"ha":510,"x_min":-72,"x_max":509,"o":"m 152 873 q 290 888 238 888 q 378 882 341 888 q 440 863 415 875 q 479 832 465 852 q 502 793 494 813 q 509 743 509 772 q 493 621 509 692 l 416 255 q 379 130 402 193 q 340 33 356 66 l 323 0 l -72 0 l -36 170 l 155 170 q 193 307 174 216 l 260 621 q 263 654 263 637 q 205 713 263 713 q 130 701 178 713 l 115 698 l 152 873 m 127 490 q 159 479 150 490 q 168 460 168 469 q 149 416 168 430 q 109 401 131 401 q 78 411 86 401 q 69 430 69 421 q 71 446 69 439 q 127 490 81 490 z "},"סּ":{"ha":713,"x_min":24,"x_max":689,"o":"m 452 888 q 544 872 505 888 q 607 836 583 856 q 650 781 630 817 q 689 610 689 715 q 670 444 689 531 q 625 289 652 357 q 569 175 599 221 q 505 95 540 130 q 438 40 470 60 q 371 7 406 20 q 261 -14 314 -14 q 157 8 206 -14 q 104 41 127 20 q 60 96 80 61 q 24 264 24 162 q 96 583 24 439 q 178 704 136 660 l 108 699 l 143 866 q 452 888 289 888 m 463 630 q 416 717 463 717 l 387 715 q 324 609 348 672 q 276 432 300 545 q 252 250 252 318 q 297 158 252 158 q 435 438 376 158 q 463 630 463 562 m 368 490 q 399 479 391 490 q 408 460 408 469 q 390 416 408 430 q 349 401 372 401 q 318 411 327 401 q 310 430 310 421 q 311 446 310 439 q 368 490 321 490 z "},"ףּ":{"ha":682,"x_min":32,"x_max":644,"o":"m 32 468 q 32 490 32 471 q 40 557 32 510 q 121 737 62 661 q 254 851 180 814 q 408 888 328 888 q 499 872 460 888 q 562 836 538 856 q 606 781 585 817 q 644 610 644 715 q 625 438 644 531 l 463 -324 l 230 -324 l 392 438 q 417 625 417 556 q 371 717 417 717 q 329 699 349 717 q 298 656 310 682 q 269 576 275 607 q 263 523 263 546 q 305 450 263 457 l 324 446 l 260 281 l 229 284 q 124 315 173 290 q 47 399 75 340 q 32 468 33 429 m 366 640 q 397 629 388 640 q 406 610 406 619 q 387 566 406 580 q 347 551 369 551 q 316 561 324 551 q 307 580 307 571 q 309 595 307 589 q 366 640 319 640 z "},"פּ":{"ha":696,"x_min":18,"x_max":673,"o":"m 446 630 q 400 717 446 717 q 366 704 382 717 q 338 675 349 692 q 317 637 327 658 q 292 522 292 579 q 334 450 292 457 l 353 446 l 288 281 l 257 284 q 153 315 201 290 q 76 399 104 340 q 61 470 61 430 q 69 557 61 510 q 124 699 85 635 q 212 804 162 763 q 320 866 262 844 q 436 888 378 888 q 528 872 488 888 q 590 836 567 856 q 634 781 614 817 q 673 610 673 715 q 654 444 673 531 q 609 289 635 357 q 553 175 583 221 q 488 94 524 130 q 421 39 453 59 q 354 7 389 19 q 238 -14 297 -14 q 123 -8 180 -14 q 42 4 66 -2 l 18 10 l 54 178 q 281 158 161 158 q 354 225 321 158 q 419 438 388 293 q 446 630 446 562 m 386 640 q 417 629 408 640 q 426 610 426 619 q 408 566 426 580 q 367 551 389 551 q 336 561 345 551 q 328 580 328 571 q 329 595 328 589 q 386 640 339 640 z "},"צּ":{"ha":689,"x_min":-64,"x_max":768,"o":"m 350 875 l 414 530 q 475 662 456 596 l 537 874 l 768 874 l 716 702 q 644 537 694 629 q 568 431 614 485 q 467 334 522 376 l 566 119 l 541 0 l -64 0 l -28 170 l 229 170 l 311 161 q 265 259 281 224 q 241 311 248 294 l 109 875 l 350 875 m 95 413 q 126 403 117 413 q 135 384 135 393 q 117 339 135 353 q 76 325 98 325 q 45 335 54 325 q 37 353 37 345 q 38 369 37 362 q 95 413 48 413 z "},"קּ":{"ha":691,"x_min":-100,"x_max":771,"o":"m 745 750 l 587 346 q 488 24 515 151 l 483 0 l 251 0 l 256 24 q 349 347 288 172 l 484 705 l 119 705 l 155 875 l 771 875 l 745 750 m 378 617 q 410 607 401 617 q 418 588 418 597 q 400 543 418 557 q 359 529 382 529 q 327 541 337 529 q 321 573 317 553 q 378 617 332 617 m -100 -325 l 82 534 l 315 534 l 132 -325 l -100 -325 z "},"רּ":{"ha":585,"x_min":80,"x_max":573,"o":"m 116 879 q 305 891 236 891 q 416 884 374 891 q 487 865 458 878 q 534 832 516 852 q 573 714 573 790 q 556 581 573 665 l 432 0 l 199 0 l 323 582 q 330 642 330 614 q 320 686 330 669 q 242 720 302 720 q 104 713 179 720 l 80 711 l 116 879 m 172 490 q 203 479 195 490 q 212 460 212 469 q 194 416 212 430 q 153 401 176 401 q 122 411 131 401 q 114 430 114 421 q 115 446 114 439 q 172 490 125 490 z "},"שּ":{"ha":869,"x_min":-21,"x_max":939,"o":"m 226 0 l -21 0 l 109 875 l 340 875 l 268 435 q 291 450 285 446 q 308 474 296 454 q 329 526 319 493 l 417 875 l 642 875 l 553 526 q 430 345 515 401 q 248 289 361 300 l 233 170 l 262 170 q 388 192 330 170 q 486 250 446 213 q 593 426 565 322 l 715 875 l 939 875 l 818 412 q 772 293 802 349 q 711 201 741 237 q 634 126 682 164 q 531 61 587 88 q 396 17 475 34 q 226 0 317 0 m 406 304 q 437 294 429 304 q 446 275 446 283 q 428 230 446 244 q 387 216 410 216 q 356 225 365 216 q 348 244 348 235 q 349 260 348 253 q 406 304 359 304 z "},"תּ":{"ha":748,"x_min":-71,"x_max":736,"o":"m 190 861 q 205 864 190 861 q 310 878 220 867 q 473 888 399 888 q 593 880 547 888 q 669 852 640 871 q 715 809 699 833 q 734 757 731 785 q 736 710 736 729 q 720 578 736 658 l 597 0 l 363 0 l 486 579 q 495 648 495 622 q 488 688 495 674 q 419 717 474 717 l 411 717 l 313 254 q 273 115 291 151 q 231 50 249 65 q 194 22 213 35 q 151 3 174 9 q 33 -13 98 -13 q -17 -6 9 -13 q -57 7 -43 0 l -71 14 l -37 174 q 19 163 6 163 q 41 169 32 163 q 56 182 50 175 q 66 204 61 189 q 79 254 72 222 l 172 694 l 106 682 l 142 850 q 190 861 159 854 m 415 490 q 446 479 437 490 q 455 460 455 469 q 437 416 455 430 q 396 401 418 401 q 365 411 374 401 q 357 430 357 421 q 358 446 357 439 q 415 490 368 490 z "},"וֹ":{"ha":356,"x_min":-31,"x_max":387,"o":"m 202 1058 q 252 1074 222 1074 q 294 1060 281 1074 q 306 1034 306 1046 q 278 972 306 994 q 227 956 257 956 q 186 969 197 956 q 174 994 174 982 q 202 1058 174 1037 m -31 0 l 155 875 l 387 875 l 201 0 l -31 0 z "}," ":{"ha":331,"x_min":0,"x_max":0,"o":""}}}
